Wide-Medium.sfdir
StartChar: exclam
Encoding: 33 33 63
Width: 1000
Flags: MW
LayerCount: 2
Back
Fore
SplineSet
425 63 m 0
 425 72 438 81 454 95 c 0
 467 107 480 133 499 133 c 0
 508 133 513 124 522 115 c 0
 556 79 575 79 575 62 c 0
 575 45 548 33 537 22 c 0
 525 10 514 -13 500 -13 c 0
 491 -13 468 8 458 21 c 0
 449 33 425 45 425 63 c 0
455 651 m 0
 455 675 474 689 504 689 c 0
 533 689 550 683 550 657 c 0
 550 650 548 642 545 618 c 0
 533 520 536 420 510 210 c 0
 509 203 506 199 496 199 c 0
 488 199 484 202 484 208 c 0
 459 506 468 447 464 507 c 0
 459 577 455 605 455 651 c 0
EndSplineSet
EndChar
StartChar: quotedbl
Encoding: 34 34 64
Width: 1000
Flags: MW
LayerCount: 2
Back
Fore
SplineSet
335 649 m 0
 335 657 348 668 362 682 c 0
 374 694 384 713 402 713 c 0
 410 713 469 683 469 601 c 0
 469 479 381 427 361 427 c 0
 353 427 348 436 348 439 c 0
 348 458 404 466 404 541 c 0
 404 621 335 613 335 649 c 0
530 649 m 0
 530 657 543 668 557 682 c 0
 569 694 579 713 597 713 c 0
 605 713 665 683 665 601 c 0
 665 479 576 427 556 427 c 0
 548 427 543 436 543 439 c 0
 543 458 599 466 599 541 c 0
 599 621 530 613 530 649 c 0
EndSplineSet
EndChar
StartChar: numbersign
Encoding: 35 35 65
Width: 1000
Flags: MW
LayerCount: 2
Back
Fore
SplineSet
292 139 m 2
 292 142 l 2
 292 156 292 163 306 163 c 2
 388 163 l 2
 390 163 391 163 391 165 c 0
 397 210 410 295 410 300 c 0
 410 304 407 305 403 305 c 2
 308 305 l 2
 298 305 292 307 292 325 c 0
 292 339 295 347 308 347 c 2
 410 347 l 2
 416 347 419 349 419 354 c 0
 445 540 442 538 445 543 c 0
 449 549 453 550 467 550 c 0
 474 550 487 549 487 538 c 0
 487 532 461 358 461 352 c 0
 461 348 462 347 467 347 c 2
 565 347 l 2
 569 347 573 348 574 354 c 0
 600 540 599 540 602 544 c 0
 606 550 613 550 625 550 c 0
 633 550 641 550 641 540 c 0
 641 531 616 361 616 352 c 0
 616 349 617 347 621 347 c 2
 690 347 l 2
 704 347 708 339 708 322 c 0
 708 307 702 305 693 305 c 2
 612 305 l 2
 608 305 608 302 607 299 c 0
 601 256 589 173 589 169 c 0
 589 165 591 163 596 163 c 2
 691 163 l 2
 701 163 708 161 708 143 c 0
 708 128 704 121 691 121 c 2
 593 121 l 2
 584 121 583 117 582 111 c 0
 557 -66 564 -66 536 -66 c 0
 522 -66 517 -60 517 -53 c 0
 517 -47 540 110 540 115 c 0
 540 120 537 121 533 121 c 2
 467 121 l 2
 428 121 427 119 426 113 c 0
 403 -58 403 -55 402 -58 c 0
 398 -64 393 -66 379 -66 c 0
 370 -66 361 -63 361 -53 c 0
 361 -47 384 109 384 114 c 0
 384 119 382 121 376 121 c 2
 306 121 l 2
 293 121 292 129 292 139 c 2
434 168 m 0
 434 164 437 163 442 163 c 2
 537 163 l 2
 541 163 546 163 547 170 c 0
 560 265 565 292 565 300 c 0
 565 303 565 305 559 305 c 2
 461 305 l 2
 455 305 453 302 452 298 c 0
 446 255 434 173 434 168 c 0
EndSplineSet
EndChar
StartChar: dollar
Encoding: 36 36 66
Width: 1000
Flags: MW
LayerCount: 2
Back
Fore
SplineSet
288 96 m 0
 288 98 291 166 311 166 c 0
 332 166 337 137 358 98 c 0
 379 60 430 27 468 27 c 0
 477 27 478 33 478 42 c 0
 478 168 481 207 481 324 c 0
 481 337 461 344 445 349 c 0
 384 369 311 407 311 513 c 0
 311 611 391 682 476 693 c 0
 484 694 489 696 489 716 c 0
 489 728 488 732 488 743 c 0
 488 760 494 766 510 766 c 0
 531 766 532 760 532 748 c 0
 532 721 531 707 531 703 c 0
 531 698 532 694 536 694 c 0
 651 680 681 614 681 607 c 0
 681 589 664 543 651 543 c 0
 644 543 640 549 638 554 c 0
 618 597 575 652 536 652 c 0
 527 652 527 641 527 633 c 0
 527 486 522 499 522 437 c 0
 522 416 523 412 535 409 c 0
 653 376 712 317 712 208 c 0
 712 67 609 12 537 -7 c 0
 518 -12 516 -10 516 -26 c 2
 516 -45 l 1
 516 -108 l 2
 516 -146 511 -150 494 -150 c 0
 475 -150 473 -140 473 -129 c 0
 473 -96 476 -55 476 -31 c 0
 476 -25 476 -12 470 -12 c 0
 405 -12 327 26 299 60 c 0
 289 72 288 83 288 96 c 0
370 539 m 0
 370 480 410 445 475 428 c 1
 477 428 l 2
 485 428 486 439 486 445 c 0
 486 532 487 557 487 641 c 0
 487 648 482 653 476 653 c 0
 455 653 370 621 370 539 c 0
517 40 m 0
 517 31 519 27 524 27 c 0
 530 27 652 40 652 185 c 0
 652 294 531 320 528 320 c 0
 523 320 521 315 521 306 c 0
 521 200 517 146 517 40 c 0
EndSplineSet
EndChar
StartChar: percent
Encoding: 37 37 67
Width: 1000
Flags: MW
LayerCount: 2
Back
Fore
SplineSet
184 344 m 0
 184 441 262 577 382 577 c 0
 457 577 470 508 532 508 c 0
 613 508 714 611 744 638 c 0
 750 644 757 646 762 646 c 0
 769 646 770 642 770 637 c 0
 770 630 765 621 762 616 c 0
 291 -88 308 -85 296 -89 c 0
 293 -90 289 -91 286 -91 c 0
 269 -91 254 -78 254 -67 c 0
 254 -53 263 -42 294 3 c 2
 458 240 l 2
 586 424 660 516 660 524 c 0
 660 527 658 528 656 528 c 0
 649 528 595 484 534 484 c 0
 510 484 490 494 486 494 c 0
 485 494 485 494 485 493 c 0
 485 491 486 484 486 474 c 0
 486 401 478 362 436 300 c 0
 413 266 373 220 294 220 c 0
 258 220 184 256 184 344 c 0
256 364 m 0
 256 291 278 247 316 247 c 0
 385 247 422 364 422 456 c 0
 422 508 403 548 374 548 c 0
 294 548 256 449 256 364 c 0
510 64 m 0
 510 168 583 293 708 293 c 0
 784 293 816 238 816 170 c 0
 816 62 737 -78 632 -78 c 0
 550 -78 510 -12 510 64 c 0
581 73 m 0
 581 0 604 -46 642 -46 c 0
 706 -46 750 73 750 165 c 0
 750 217 729 262 700 262 c 0
 620 262 581 158 581 73 c 0
EndSplineSet
EndChar
StartChar: ampersand
Encoding: 38 38 68
Width: 1000
Flags: MW
LayerCount: 2
Back
Fore
SplineSet
103 242 m 0
 103 287 120 342 143 371 c 0
 197 437 265 434 265 442 c 0
 265 454 217 484 217 571 c 0
 217 667 323 704 405 704 c 0
 465 704 488 681 506 681 c 0
 514 681 519 684 528 684 c 0
 543 684 544 672 544 661 c 0
 544 658 548 615 548 593 c 0
 548 553 547 552 537 552 c 0
 516 552 468 667 380 667 c 0
 310 667 287 619 287 590 c 0
 287 537 371 453 451 374 c 0
 555 271 663 179 675 179 c 0
 687 179 701 206 701 263 c 0
 701 342 670 353 644 366 c 0
 625 375 606 366 606 384 c 0
 606 394 610 395 631 395 c 0
 691 395 645 393 780 393 c 0
 793 393 799 388 799 380 c 0
 799 359 763 377 759 324 c 0
 757 298 752 263 750 245 c 0
 744 201 714 158 714 149 c 0
 714 136 818 73 894 35 c 0
 914 25 928 25 937 25 c 0
 950 25 963 28 973 28 c 0
 981 28 986 24 986 19 c 0
 986 -3 941 -19 889 -19 c 0
 751 -19 675 82 665 82 c 0
 646 82 595 -22 402 -22 c 0
 318 -22 103 5 103 242 c 0
169 276 m 0
 169 189 253 45 456 45 c 0
 552 45 624 100 624 109 c 0
 624 119 535 172 390 316 c 0
 298 407 290 421 278 421 c 0
 242 421 169 366 169 276 c 0
EndSplineSet
EndChar
StartChar: quotesingle
Encoding: 39 39 69
Width: 1000
Flags: MW
LayerCount: 2
Back
Fore
SplineSet
433 649 m 0
 433 657 446 668 460 682 c 0
 472 694 482 713 500 713 c 0
 508 713 567 683 567 601 c 0
 567 479 479 427 459 427 c 0
 451 427 446 436 446 439 c 0
 446 458 502 466 502 541 c 0
 502 621 433 613 433 649 c 0
EndSplineSet
EndChar
StartChar: parenleft
Encoding: 40 40 70
Width: 1000
Flags: MW
LayerCount: 2
Back
Fore
SplineSet
739 278 m 4
 739 593 940 772 961 772 c 4
 979 772 982 762 982 751 c 4
 982 722 784 623 784 277 c 4
 784 -41 979 -168 979 -195 c 4
 979 -208 965 -214 959 -214 c 4
 926 -214 739 0 739 278 c 4
EndSplineSet
EndChar
StartChar: parenright
Encoding: 41 41 71
Width: 1000
Flags: MW
LayerCount: 2
Back
Fore
SplineSet
10 -192 m 0
 10 -163 208 -65 208 281 c 0
 208 599 13 726 13 753 c 0
 13 766 27 772 33 772 c 0
 66 772 253 558 253 280 c 0
 253 -35 52 -214 31 -214 c 0
 13 -214 10 -203 10 -192 c 0
EndSplineSet
EndChar
StartChar: asterisk
Encoding: 42 42 72
Width: 1000
Flags: MW
LayerCount: 2
Back
Fore
SplineSet
343 383 m 0
 343 405 451 438 451 447 c 0
 451 458 343 492 343 513 c 0
 343 522 355 548 375 548 c 0
 391 548 457 495 466 495 c 0
 469 495 471 500 471 514 c 0
 471 535 468 567 468 593 c 0
 468 610 473 614 494 614 c 0
 524 614 531 612 531 578 c 0
 531 560 527 533 527 513 c 0
 527 499 529 495 532 495 c 0
 543 495 612 549 624 549 c 0
 642 549 657 526 657 514 c 0
 657 493 548 458 548 448 c 0
 548 436 657 404 657 383 c 0
 657 373 644 348 623 348 c 0
 608 348 540 401 533 401 c 0
 529 401 528 396 528 382 c 0
 528 363 531 339 531 324 c 0
 531 286 528 282 495 282 c 0
 480 282 468 285 468 306 c 0
 468 324 471 355 471 378 c 0
 471 395 470 401 466 401 c 0
 457 401 387 348 375 348 c 0
 356 348 343 373 343 383 c 0
EndSplineSet
EndChar
StartChar: plus
Encoding: 43 43 73
Width: 1000
Flags: MW
LayerCount: 2
Back
Fore
SplineSet
268 212 m 0
 268 225 268 232 286 232 c 2
 456 232 l 2
 475 232 478 240 478 251 c 2
 478 427 l 2
 478 442 485 442 499 442 c 0
 513 442 523 442 523 422 c 2
 523 259 l 2
 523 245 524 232 540 232 c 2
 717 232 l 2
 733 232 733 225 733 211 c 0
 733 194 733 188 712 188 c 2
 540 188 l 2
 523 188 523 182 523 170 c 2
 523 -5 l 2
 523 -22 514 -22 503 -22 c 0
 483 -22 478 -22 478 -4 c 2
 478 170 l 2
 478 188 471 188 454 188 c 2
 285 188 l 2
 267 188 268 195 268 212 c 0
EndSplineSet
EndChar
StartChar: comma
Encoding: 44 44 74
Width: 1000
Flags: MW
LayerCount: 2
Back
Fore
SplineSet
54 54 m 0
 54 68 70 78 85 93 c 0
 97 105 104 125 127 125 c 0
 132 125 196 87 196 0 c 0
 196 -94 107 -166 80 -166 c 0
 73 -166 65 -161 65 -153 c 0
 65 -132 127 -117 127 -48 c 0
 127 -6 103 9 71 33 c 0
 54 45 54 44 54 54 c 0
EndSplineSet
EndChar
StartChar: hyphen
Encoding: 45 45 75
Width: 1000
Flags: MW
LayerCount: 2
Back
Fore
SplineSet
374 145 m 2
 374 156 l 2
 374 198 386 199 431 212 c 0
 559 250 582 268 604 268 c 0
 622 268 626 252 626 234 c 2
 626 228 l 2
 626 189 616 196 529 168 c 0
 438 138 414 124 390 124 c 0
 375 124 374 133 374 145 c 2
EndSplineSet
EndChar
StartChar: slash
Encoding: 47 47 77
Width: 1000
Flags: MW
LayerCount: 2
Back
Fore
SplineSet
49 -170 m 0
 49 -161 50 -140 77 -113 c 2
 77 -113 878 712 883 717 c 0
 894 729 900 735 918 735 c 0
 927 735 939 733 939 723 c 0
 939 703 928 689 919 679 c 2
 116 -152 l 2
 96 -173 90 -183 75 -183 c 0
 63 -183 49 -183 49 -170 c 0
EndSplineSet
EndChar
StartChar: zero
Encoding: 48 48 0
Width: 1000
Flags: MW
LayerCount: 2
Back
Fore
SplineSet
196 323 m 0
 196 566 348 712 522 712 c 0
 711 712 804 554 804 362 c 0
 804 161 701 -14 494 -14 c 0
 262 -14 196 151 196 323 c 0
256 390 m 0
 256 219 361 27 532 27 c 0
 678 27 748 165 748 311 c 0
 748 476 656 652 478 652 c 0
 322 652 256 528 256 390 c 0
EndSplineSet
EndChar
StartChar: one
Encoding: 49 49 1
Width: 1000
Flags: MW
LayerCount: 2
Back
Fore
SplineSet
294 611 m 0
 294 622 310 631 332 638 c 0
 370 650 381 644 450 672 c 0
 495 691 517 720 536 720 c 0
 555 720 556 705 556 697 c 0
 556 689 542 657 542 646 c 0
 540 604 536 517 536 314 c 0
 536 213 534 154 534 118 c 0
 534 -16 706 59 706 15 c 0
 706 2 685 1 662 1 c 2
 500 1 l 2
 443 1 379 -2 342 -2 c 0
 317 -2 304 2 304 14 c 0
 304 29 328 33 352 33 c 2
 368 33 l 2
 444 33 446 68 446 73 c 0
 458 135 462 245 462 346 c 2
 462 549 l 2
 462 586 455 611 410 611 c 0
 370 611 328 596 310 596 c 0
 307 596 294 600 294 611 c 0
EndSplineSet
EndChar
StartChar: two
Encoding: 50 50 2
Width: 1000
Flags: MW
LayerCount: 2
Back
Fore
SplineSet
210 12 m 2
 210 15 l 2
 210 46 367 112 544 368 c 0
 583 426 610 495 610 554 c 0
 610 609 550 650 454 650 c 0
 307 650 266 586 236 586 c 0
 228 586 224 593 224 600 c 0
 224 610 301 719 480 719 c 0
 582 719 694 674 694 578 c 0
 694 398 370 110 370 90 c 0
 370 80 432 78 472 78 c 0
 688 78 652 80 686 92 c 0
 726 106 757 147 776 147 c 0
 786 147 790 142 790 137 c 0
 790 129 706 16 706 16 c 2
 694 2 681 -1 670 -1 c 0
 508 -1 501 1 434 1 c 0
 398 1 301 -1 260 -1 c 0
 212 -1 210 4 210 12 c 2
EndSplineSet
EndChar
StartChar: three
Encoding: 51 51 3
Width: 1000
Flags: MW
LayerCount: 2
Back
Fore
SplineSet
215 47 m 0
 215 51 219 63 247 63 c 0
 269 63 301 16 433 16 c 0
 628 16 701 150 701 218 c 0
 701 291 656 364 497 364 c 0
 468 364 456 360 452 360 c 0
 436 360 432 369 432 375 c 0
 432 388 454 384 562 437 c 0
 625 468 661 514 661 555 c 0
 661 606 600 650 517 650 c 0
 413 650 336 590 306 590 c 0
 293 590 294 594 294 599 c 0
 294 647 432 710 531 710 c 0
 634 710 738 674 738 593 c 0
 738 521 695 487 648 445 c 0
 638 436 631 431 631 426 c 0
 631 419 673 423 716 391 c 0
 757 361 785 320 785 257 c 0
 785 95 620 -23 433 -23 c 0
 328 -23 215 14 215 47 c 0
EndSplineSet
EndChar
StartChar: four
Encoding: 52 52 4
Width: 1000
Flags: MW
LayerCount: 2
Back
Fore
SplineSet
194 223 m 0
 194 248 208 262 533 617 c 0
 571 659 607 710 634 710 c 0
 645 710 656 704 656 690 c 0
 656 684 638 353 638 305 c 0
 638 284 637 280 657 280 c 0
 761 280 755 312 788 312 c 0
 792 312 806 310 806 298 c 0
 806 285 797 271 790 253 c 0
 787 245 782 207 751 207 c 0
 727 207 684 210 663 210 c 0
 644 210 636 204 636 190 c 0
 636 154 638 120 638 57 c 0
 638 -23 639 -4 639 -31 c 0
 639 -81 638 -73 602 -84 c 0
 588 -88 573 -90 569 -90 c 0
 553 -90 547 -71 547 -63 c 0
 547 -53 564 -21 564 203 c 0
 564 209 557 209 549 209 c 2
 379 209 l 2
 324 209 275 207 233 207 c 0
 206 207 194 208 194 223 c 0
294 286 m 0
 294 278 312 277 336 277 c 2
 522 277 l 2
 564 277 565 281 565 298 c 4
 565 306 569 466 569 529 c 4
 569 548 566 558 562 558 c 0
 552 558 294 310 294 286 c 0
EndSplineSet
EndChar
StartChar: five
Encoding: 53 53 5
Width: 1000
Flags: MW
LayerCount: 2
Back
Fore
SplineSet
234 16 m 0
 234 26 243 31 253 31 c 0
 281 31 301 8 413 8 c 0
 577 8 684 107 684 222 c 0
 684 303 619 374 473 374 c 0
 383 374 371 365 349 365 c 0
 322 365 316 383 316 390 c 0
 316 414 348 521 373 660 c 0
 376 674 386 686 415 686 c 0
 664 688 673 685 699 700 c 0
 721 713 727 726 743 726 c 0
 752 726 758 720 758 715 c 0
 758 711 756 705 753 700 c 0
 698 618 698 611 668 611 c 0
 658 611 614 612 578 612 c 0
 475 612 403 602 399 596 c 0
 387 575 366 480 366 457 c 0
 366 449 372 442 376 442 c 0
 380 442 402 450 492 450 c 0
 576 450 653 425 695 390 c 0
 744 350 766 298 766 260 c 0
 766 64 579 -30 421 -30 c 0
 356 -30 234 -18 234 16 c 0
EndSplineSet
EndChar
StartChar: six
Encoding: 54 54 6
Width: 1000
Flags: MW
LayerCount: 2
Back
Fore
SplineSet
213 248 m 0
 213 592 652 723 742 723 c 0
 759 723 765 713 765 706 c 0
 765 678 678 704 524 612 c 0
 385 529 325 420 325 387 c 0
 325 381 327 377 331 377 c 0
 345 377 390 448 534 448 c 0
 675 448 787 360 787 229 c 0
 787 88 664 -22 509 -22 c 0
 481 -22 415 -19 359 14 c 0
 302 48 213 118 213 248 c 0
297 239 m 0
 297 181 345 20 541 20 c 0
 661 20 717 100 717 186 c 0
 717 290 635 402 485 402 c 0
 422 402 322 363 307 312 c 0
 301 290 297 271 297 239 c 0
EndSplineSet
EndChar
StartChar: seven
Encoding: 55 55 7
Width: 1000
Flags: MW
LayerCount: 2
Back
Fore
SplineSet
264 561 m 0
 264 599 285 642 293 679 c 0
 294 688 307 691 313 691 c 0
 353 691 355 687 518 687 c 2
 557 687 l 2
 670 687 680 689 703 689 c 0
 722 689 736 680 736 668 c 0
 736 524 506 231 506 71 c 0
 506 -10 537 -26 537 -43 c 0
 537 -67 478 -74 469 -74 c 0
 439 -74 414 -65 414 14 c 0
 414 169 598 391 653 511 c 0
 672 553 682 586 682 601 c 0
 682 605 673 614 656 614 c 0
 649 614 639 615 630 615 c 0
 614 615 535 613 472 613 c 0
 448 613 450 614 431 614 c 0
 330 614 309 588 296 555 c 0
 292 541 285 521 276 521 c 0
 267 521 264 538 264 561 c 0
EndSplineSet
EndChar
StartChar: eight
Encoding: 56 56 8
Width: 1000
Flags: MW
LayerCount: 2
Back
Fore
SplineSet
225 181 m 0
 225 328 369 368 369 374 c 0
 369 384 257 411 257 524 c 0
 257 644 379 710 513 710 c 0
 704 710 751 615 751 549 c 0
 751 410 603 406 603 398 c 0
 603 385 775 347 775 196 c 0
 775 113 718 -21 495 -21 c 0
 348 -21 225 48 225 181 c 0
283 210 m 0
 283 86 407 18 523 18 c 0
 620 18 709 68 709 174 c 0
 709 215 677 254 642 275 c 0
 557 326 455 351 428 351 c 0
 376 351 283 291 283 210 c 0
321 548 m 0
 321 441 524 418 551 418 c 0
 608 418 693 453 693 543 c 0
 693 585 647 671 503 671 c 0
 425 671 321 647 321 548 c 0
EndSplineSet
EndChar
StartChar: nine
Encoding: 57 57 9
Width: 1000
Flags: MW
LayerCount: 2
Back
Fore
SplineSet
215 463 m 0
 215 592 323 710 494 710 c 0
 668 710 785 588 785 441 c 0
 785 312 706 156 539 61 c 0
 434 1 315 -29 259 -29 c 0
 239 -29 237 -21 237 -16 c 0
 237 -12 238 -4 259 -1 c 0
 341 11 444 54 533 119 c 0
 604 171 661 273 661 292 c 0
 661 297 658 298 655 298 c 0
 643 298 580 240 483 240 c 0
 304 240 215 350 215 463 c 0
289 514 m 0
 289 410 379 289 508 289 c 0
 648 289 699 366 699 451 c 0
 699 544 617 665 470 665 c 0
 344 665 289 594 289 514 c 0
EndSplineSet
EndChar
StartChar: colon
Encoding: 58 58 78
Width: 1000
Flags: MW
LayerCount: 2
Back
Fore
SplineSet
428 55 m 0
 428 64 448 80 464 94 c 0
 477 106 487 127 506 127 c 0
 514 127 526 109 542 90 c 0
 551 80 571 65 571 55 c 0
 571 43 551 33 536 19 c 0
 524 7 514 -16 500 -16 c 0
 484 -16 471 11 458 21 c 0
 441 33 428 45 428 55 c 0
436 336 m 0
 436 345 451 360 466 373 c 0
 479 384 486 406 504 406 c 0
 512 406 530 382 540 369 c 0
 548 359 566 349 566 335 c 0
 566 324 550 314 536 301 c 0
 524 290 516 268 500 268 c 0
 484 268 475 294 466 303 c 0
 452 317 436 327 436 336 c 0
EndSplineSet
EndChar
StartChar: semicolon
Encoding: 59 59 79
Width: 1000
Flags: MW
LayerCount: 2
Back
Fore
SplineSet
428 342 m 0
 428 351 443 366 458 379 c 0
 471 390 475 413 496 413 c 0
 504 413 524 388 534 375 c 0
 542 365 562 354 562 340 c 0
 562 329 546 319 532 306 c 0
 520 295 510 273 494 273 c 0
 478 273 467 300 458 309 c 0
 444 323 428 333 428 342 c 0
430 54 m 0
 430 68 447 78 462 93 c 0
 474 105 479 125 502 125 c 0
 507 125 572 87 572 0 c 0
 572 -94 481 -168 454 -168 c 0
 450 -168 442 -161 442 -153 c 0
 442 -132 502 -117 502 -48 c 0
 502 -10 480 9 448 33 c 0
 431 45 430 44 430 54 c 0
EndSplineSet
EndChar
StartChar: less
Encoding: 60 60 80
Width: 1000
Flags: MW
LayerCount: 2
Back
Fore
SplineSet
277 211 m 0
 277 221 277 225 292 231 c 0
 699 379 698 381 704 381 c 0
 713 381 723 377 723 356 c 0
 723 347 715 342 707 340 c 2
 402 229 l 2
 383 222 360 213 360 208 c 0
 360 203 382 197 402 190 c 2
 712 78 l 2
 718 76 723 72 723 65 c 0
 723 57 717 41 699 41 c 0
 693 41 696 41 291 188 c 0
 277 193 277 197 277 211 c 0
EndSplineSet
EndChar
StartChar: equal
Encoding: 61 61 81
Width: 1000
Flags: MW
LayerCount: 2
Back
Fore
SplineSet
268 114 m 0
 268 127 268 135 286 135 c 2
 717 135 l 2
 733 135 733 128 733 114 c 0
 733 97 733 90 712 90 c 2
 285 90 l 2
 267 90 268 97 268 114 c 0
268 310 m 0
 268 323 268 330 286 330 c 2
 717 330 l 2
 733 330 733 323 733 309 c 0
 733 292 733 286 712 286 c 2
 285 286 l 2
 267 286 268 293 268 310 c 0
EndSplineSet
EndChar
StartChar: greater
Encoding: 62 62 82
Width: 1000
Flags: MW
LayerCount: 2
Back
Fore
SplineSet
277 65 m 0
 277 72 281 76 287 78 c 2
 598 190 l 2
 618 197 640 203 640 208 c 0
 640 213 617 222 598 229 c 2
 292 340 l 2
 284 342 277 347 277 356 c 0
 277 377 286 381 295 381 c 0
 301 381 300 379 707 231 c 0
 722 225 723 221 723 211 c 0
 723 197 722 193 708 188 c 0
 303 41 306 41 300 41 c 0
 282 41 277 57 277 65 c 0
EndSplineSet
EndChar
StartChar: question
Encoding: 63 63 83
Width: 1000
Flags: MW
LayerCount: 2
Back
Fore
SplineSet
381 612 m 0
 381 631 426 673 485 673 c 0
 551 673 619 635 619 559 c 0
 619 461 479 357 479 251 c 0
 479 232 484 215 484 205 c 0
 484 199 482 195 476 195 c 0
 454 195 444 252 444 274 c 0
 444 345 536 485 536 548 c 0
 536 607 470 628 445 628 c 0
 415 628 398 603 390 603 c 0
 384 603 381 609 381 612 c 0
403 59 m 0
 403 68 424 87 439 100 c 0
 452 112 464 132 478 132 c 0
 488 132 509 101 513 97 c 0
 517 93 547 72 547 62 c 0
 547 45 524 37 513 26 c 0
 501 14 489 -9 476 -9 c 0
 467 -9 446 11 436 24 c 0
 427 36 403 45 403 59 c 0
EndSplineSet
EndChar
StartChar: at
Encoding: 64 64 84
Width: 1000
Flags: MW
LayerCount: 2
Back
Fore
SplineSet
134 286 m 0
 134 625 432 697 552 697 c 0
 741 697 867 559 867 392 c 0
 867 244 757 129 638 129 c 0
 545 129 563 209 554 209 c 0
 545 209 490 111 400 111 c 0
 334 111 306 152 306 208 c 0
 306 321 415 488 538 488 c 0
 570 488 601 479 610 479 c 0
 625 479 631 519 652 519 c 0
 660 519 660 509 660 500 c 0
 660 487 610 320 610 246 c 2
 610 233 l 2
 610 203 622 174 652 174 c 0
 748 174 826 246 826 397 c 0
 826 568 702 659 554 659 c 0
 357 659 194 516 194 297 c 0
 194 109 321 -27 512 -27 c 0
 655 -27 718 38 730 38 c 0
 735 38 742 35 742 26 c 0
 742 8 645 -64 494 -64 c 0
 286 -64 134 63 134 286 c 0
373 227 m 0
 373 185 402 167 436 167 c 0
 479 167 518 203 526 215 c 0
 537 231 541 238 552 281 c 0
 566 334 592 433 592 436 c 0
 592 444 554 456 530 456 c 0
 476 456 373 374 373 227 c 0
EndSplineSet
EndChar
StartChar: B
Encoding: 66 66 11
Width: 1000
Flags: MW
LayerCount: 2
Back
Fore
SplineSet
210 694 m 0
 210 700 212 709 218 709 c 0
 228 709 228 708 258 708 c 0
 294 708 386 709 404 709 c 0
 447 709 479 712 514 712 c 0
 628 712 727 656 727 545 c 0
 727 440 628 402 628 396 c 0
 628 384 791 379 791 208 c 0
 791 151 751 75 706 44 c 0
 644 1 600 -8 532 -8 c 0
 463 -8 379 3 354 3 c 0
 330 3 302 -1 268 -1 c 2
 254 -1 l 2
 244 -1 232 1 232 14 c 0
 232 18 234 28 244 28 c 0
 255 28 259 29 266 29 c 0
 280 29 309 46 312 122 c 0
 315 187 314 322 314 434 c 2
 314 604 l 2
 314 613 309 682 226 682 c 0
 220 682 210 682 210 694 c 0
390 92 m 0
 390 35 453 32 488 32 c 2
 512 32 l 2
 542 32 572 33 598 37 c 0
 660 47 706 108 706 184 c 0
 706 356 543 364 510 364 c 0
 417 364 425 366 416 366 c 0
 395 366 392 364 392 204 c 2
 392 196 l 2
 392 113 390 102 390 92 c 0
396 545 m 2
 396 413 400 402 410 401 c 0
 429 399 432 398 460 398 c 2
 524 398 l 2
 613 398 650 452 650 516 c 0
 650 576 592 677 448 677 c 0
 409 677 396 665 396 574 c 2
 396 545 l 2
EndSplineSet
EndChar
StartChar: C
Encoding: 67 67 12
Width: 1000
Flags: MW
LayerCount: 2
Back
Fore
SplineSet
154 324 m 0
 154 537 285 714 533 714 c 0
 671 714 783 641 792 641 c 0
 799 641 805 651 813 651 c 0
 819 651 828 646 828 635 c 0
 830 569 842 507 842 495 c 0
 842 479 834 477 830 477 c 0
 824 477 817 484 813 491 c 0
 755 600 663 673 533 673 c 0
 368 673 248 557 248 384 c 0
 248 203 337 26 580 26 c 0
 704 26 782 115 822 176 c 0
 826 183 830 183 837 183 c 0
 843 183 846 176 846 169 c 0
 846 145 832 92 828 71 c 0
 826 62 820 57 812 53 c 0
 725 11 658 -20 554 -20 c 0
 252 -20 154 167 154 324 c 0
EndSplineSet
EndChar
StartChar: D
Encoding: 68 68 13
Width: 1000
Flags: MW
LayerCount: 2
Back
Fore
SplineSet
136 700 m 0
 136 712 145 712 187 712 c 2
 274 712 l 2
 327 712 401 716 469 716 c 0
 649 716 864 606 864 390 c 0
 864 196 806 135 719 63 c 0
 686 36 603 -3 515 -3 c 0
 491 -3 347 2 275 2 c 0
 215 2 195 -3 175 -3 c 0
 154 -3 151 2 151 10 c 0
 151 28 166 25 186 33 c 0
 207 42 229 72 229 98 c 0
 229 204 230 283 230 369 c 0
 230 450 229 503 229 623 c 0
 229 645 203 674 176 676 c 0
 155 677 136 678 136 700 c 0
313 141 m 0
 313 55 324 67 404 44 c 0
 425 38 451 34 477 34 c 2
 497 34 l 2
 590 34 648 60 705 115 c 0
 761 169 779 267 779 345 c 0
 779 569 591 673 436 673 c 0
 317 673 316 672 316 546 c 0
 316 507 314 373 314 354 c 0
 314 250 313 183 313 141 c 0
EndSplineSet
EndChar
StartChar: E
Encoding: 69 69 14
Width: 1000
Flags: MW
LayerCount: 2
Back
Fore
SplineSet
218 699 m 0
 218 711 238 713 246 713 c 0
 254 713 263 711 273 711 c 0
 297 711 418 706 517 706 c 0
 557 706 687 710 717 710 c 0
 724 710 736 708 736 687 c 0
 736 667 724 635 724 585 c 0
 724 573 716 563 708 563 c 0
 700 563 693 570 693 584 c 0
 693 619 668 654 634 656 c 0
 570 661 551 663 496 663 c 2
 470 663 l 2
 400 663 402 662 399 602 c 0
 397 566 395 481 395 435 c 0
 395 417 396 385 414 384 c 2
 439 384 l 1
 481 384 l 1
 512 384 l 2
 598 384 609 390 628 403 c 0
 645 415 649 429 651 440 c 0
 653 450 655 457 665 457 c 0
 677 457 678 453 678 441 c 0
 678 423 670 371 670 336 c 0
 670 302 673 294 673 275 c 0
 673 251 669 250 666 250 c 0
 654 250 648 260 644 274 c 0
 638 292 634 313 619 323 c 0
 598 337 527 337 523 337 c 0
 436 337 446 338 435 338 c 0
 414 338 394 335 394 319 c 0
 394 262 392 231 392 175 c 2
 392 135 l 2
 392 102 399 61 416 56 c 0
 438 49 444 48 459 48 c 0
 778 48 741 143 770 143 c 0
 776 143 782 138 782 126 c 0
 782 66 704 -5 664 -5 c 0
 536 -5 450 5 389 5 c 0
 334 5 302 -4 253 -4 c 0
 243 -4 232 -5 232 6 c 0
 232 33 233 17 275 37 c 0
 306 52 314 78 314 231 c 2
 314 355 l 2
 314 410 317 466 317 528 c 0
 317 557 316 587 315 619 c 0
 313 661 273 680 234 681 c 0
 218 681 218 690 218 699 c 0
EndSplineSet
EndChar
StartChar: F
Encoding: 70 70 15
Width: 1000
Flags: MW
LayerCount: 2
Back
Fore
SplineSet
243 697 m 0
 243 700 246 714 269 714 c 2
 296 714 l 2
 365 714 362 708 513 708 c 0
 646 708 640 713 740 713 c 0
 747 713 757 710 757 689 c 0
 757 669 749 638 743 587 c 0
 742 575 736 567 728 567 c 0
 720 567 714 573 714 587 c 0
 714 622 702 654 668 656 c 0
 580 663 524 668 488 668 c 0
 419 668 423 651 421 604 c 0
 419 568 418 483 418 437 c 0
 418 419 418 388 436 387 c 0
 445 387 454 386 461 386 c 0
 476 386 488 387 504 387 c 2
 535 387 l 2
 621 387 631 392 650 405 c 0
 656 409 661 414 664 419 c 0
 677 439 668 459 688 459 c 0
 700 459 701 455 701 443 c 0
 701 425 692 395 692 360 c 0
 692 326 699 297 699 278 c 0
 699 254 693 253 685 253 c 0
 670 253 666 264 664 278 c 0
 661 296 661 318 642 326 c 0
 620 336 549 340 545 340 c 2
 458 340 l 2
 437 340 417 337 417 321 c 0
 417 264 415 233 415 177 c 0
 415 163 414 150 414 137 c 0
 414 111 422 33 494 33 c 0
 517 33 524 22 524 15 c 0
 524 10 519 -4 493 -4 c 0
 462 -4 422 4 396 4 c 0
 341 4 324 -2 275 -2 c 0
 265 -2 255 -2 255 9 c 0
 255 27 257 25 298 40 c 0
 341 55 335 121 337 357 c 0
 337 412 340 469 340 531 c 2
 340 589 l 2
 340 621 336 657 293 677 c 0
 271 688 243 676 243 697 c 0
EndSplineSet
EndChar
StartChar: G
Encoding: 71 71 16
Width: 1000
Flags: MW
LayerCount: 2
Back
Fore
SplineSet
128 329 m 0
 128 542 262 719 518 719 c 0
 688 719 759 648 768 648 c 0
 775 648 788 663 796 663 c 0
 806 663 810 654 810 643 c 0
 812 577 825 516 825 504 c 0
 825 488 816 487 812 487 c 0
 806 487 799 492 796 499 c 0
 750 600 626 680 510 680 c 0
 350 680 222 575 222 384 c 0
 222 203 330 24 518 24 c 0
 622 24 719 79 728 139 c 0
 729 147 730 224 730 265 c 0
 730 294 724 311 714 321 c 0
 702 333 685 335 670 337 c 0
 650 339 632 339 632 359 c 0
 632 365 636 370 650 370 c 0
 675 370 737 365 762 365 c 0
 808 365 853 366 856 366 c 0
 860 366 872 365 872 357 c 0
 872 341 823 341 818 311 c 0
 813 280 812 242 812 199 c 0
 812 110 816 98 816 87 c 0
 816 75 789 79 754 60 c 0
 742 53 639 -17 528 -17 c 0
 226 -17 128 158 128 329 c 0
EndSplineSet
EndChar
StartChar: H
Encoding: 72 72 17
Width: 1000
Flags: MW
LayerCount: 2
Back
Fore
SplineSet
124 699 m 0
 124 710 139 710 152 710 c 0
 180 710 210 706 266 706 c 0
 309 706 291 708 354 708 c 0
 361 708 376 707 376 694 c 0
 376 685 372 677 340 677 c 0
 309 677 302 591 302 552 c 2
 302 515 l 2
 302 472 300 443 300 423 c 0
 300 389 305 384 334 384 c 0
 367 384 351 385 498 385 c 0
 520 385 558 384 688 383 c 0
 698 383 698 389 698 522 c 2
 698 576 l 2
 698 716 614 657 614 696 c 0
 614 704 630 706 654 706 c 0
 678 706 711 704 750 704 c 0
 774 704 792 706 828 706 c 0
 837 706 852 703 852 693 c 0
 852 680 842 680 838 680 c 0
 799 680 780 653 780 618 c 0
 779 522 777 451 777 375 c 0
 777 327 776 279 776 225 c 2
 776 188 l 2
 776 134 780 124 780 96 c 0
 780 37 837 25 864 22 c 0
 867 22 876 21 876 11 c 0
 876 1 862 0 826 0 c 0
 803 0 779 5 750 5 c 0
 712 5 703 0 656 0 c 0
 630 0 620 0 620 13 c 0
 620 32 681 27 688 65 c 0
 693 91 696 116 696 138 c 0
 696 158 696 176 696 192 c 0
 696 229 698 270 698 315 c 0
 698 333 692 342 636 342 c 0
 610 342 518 339 512 339 c 0
 429 339 392 342 328 342 c 0
 310 342 304 340 304 305 c 0
 304 257 300 221 300 182 c 2
 300 139 l 2
 300 88 302 62 346 34 c 0
 351 31 369 29 390 29 c 0
 400 29 408 23 408 18 c 0
 408 2 393 0 376 0 c 0
 322 0 327 4 294 4 c 0
 242 4 222 -1 186 -1 c 0
 145 -1 138 6 138 14 c 0
 138 41 197 13 212 78 c 0
 215 94 226 227 226 345 c 2
 226 402 l 2
 226 431 226 469 226 510 c 0
 226 551 225 593 220 629 c 0
 215 665 175 682 146 682 c 0
 130 682 124 696 124 699 c 0
EndSplineSet
EndChar
StartChar: I
Encoding: 73 73 18
Width: 1000
Flags: MW
LayerCount: 2
Back
Fore
SplineSet
356 695 m 0
 356 702 360 710 384 710 c 0
 412 710 440 706 496 706 c 0
 539 706 521 708 584 708 c 0
 591 708 612 707 612 694 c 0
 612 685 595 679 566 667 c 0
 538 656 534 591 534 552 c 0
 534 317 530 274 530 182 c 0
 530 121 537 89 556 61 c 0
 577 32 594 30 604 30 c 0
 607 30 621 29 624 29 c 0
 634 29 644 23 644 18 c 0
 644 2 637 0 620 0 c 0
 566 0 557 4 524 4 c 0
 472 4 450 -1 414 -1 c 0
 373 -1 370 6 370 14 c 0
 370 41 429 13 444 78 c 0
 446 86 454 277 454 345 c 2
 454 402 l 2
 454 431 456 469 456 510 c 2
 456 556 l 2
 456 582 455 607 452 629 c 0
 447 665 404 679 376 680 c 0
 356 681 356 690 356 695 c 0
EndSplineSet
EndChar
StartChar: J
Encoding: 74 74 19
Width: 1000
Flags: MW
LayerCount: 2
Back
Fore
SplineSet
302 -154 m 0
 302 -134 322 -99 333 -99 c 0
 350 -99 354 -133 391 -133 c 0
 431 -133 452 -100 460 -55 c 0
 469 -8 473 33 473 66 c 0
 473 90 472 187 472 189 c 0
 472 257 469 188 469 530 c 0
 469 567 468 603 465 629 c 0
 461 664 417 677 389 678 c 0
 369 679 367 691 367 696 c 0
 367 705 372 713 396 713 c 0
 424 713 453 707 509 707 c 0
 552 707 527 708 590 708 c 0
 597 708 618 708 618 695 c 0
 618 686 601 679 572 667 c 0
 553 660 551 630 551 599 c 2
 551 553 l 2
 551 69 549 117 549 69 c 0
 549 -87 450 -192 342 -192 c 0
 327 -192 302 -190 302 -154 c 0
EndSplineSet
EndChar
StartChar: K
Encoding: 75 75 20
Width: 1000
Flags: MW
LayerCount: 2
Back
Fore
SplineSet
158 695 m 0
 158 702 162 708 186 708 c 0
 214 708 242 706 298 706 c 0
 341 706 315 708 384 708 c 0
 391 708 402 707 402 695 c 0
 402 685 382 683 366 674 c 0
 340 659 335 591 335 552 c 0
 335 462 332 417 332 396 c 0
 332 378 335 375 342 375 c 0
 353 375 638 607 638 655 c 0
 638 677 605 679 588 683 c 0
 579 685 578 694 578 697 c 0
 578 708 587 708 594 708 c 0
 600 708 607 707 618 707 c 0
 627 707 652 705 678 705 c 0
 682 705 802 708 802 708 c 2
 816 708 822 705 822 695 c 0
 822 679 799 681 764 666 c 0
 749 660 738 650 716 636 c 0
 698 625 721 642 428 396 c 0
 420 390 418 382 418 382 c 2
 418 376 423 371 428 366 c 0
 714 84 746 42 808 32 c 0
 829 29 842 28 842 14 c 0
 842 2 840 1 784 1 c 2
 688 1 l 2
 662 1 675 4 590 91 c 0
 361 323 364 324 348 324 c 0
 336 324 334 309 334 297 c 0
 334 295 335 276 335 220 c 0
 335 159 335 89 350 62 c 0
 368 31 408 30 418 30 c 0
 421 30 423 29 426 29 c 0
 436 29 446 23 446 18 c 0
 446 2 439 0 422 0 c 0
 368 0 359 4 326 4 c 0
 274 4 252 -1 216 -1 c 0
 183 -1 180 4 180 10 c 2
 180 14 l 2
 180 30 217 22 236 42 c 0
 257 63 256 148 256 268 c 2
 256 402 l 2
 256 431 254 469 254 510 c 2
 254 556 l 2
 254 582 255 607 252 629 c 0
 248 664 206 679 178 680 c 0
 158 681 158 690 158 695 c 0
EndSplineSet
EndChar
StartChar: L
Encoding: 76 76 21
Width: 1000
Flags: MW
LayerCount: 2
Back
Fore
SplineSet
218 695 m 0
 218 710 238 713 246 713 c 0
 254 713 262 711 272 711 c 0
 296 711 320 707 360 707 c 0
 414 707 446 711 464 711 c 0
 477 711 482 709 482 701 c 0
 482 658 407 714 400 593 c 0
 397 531 392 186 392 175 c 2
 392 135 l 2
 392 102 399 61 416 56 c 0
 438 49 443 48 458 48 c 0
 777 48 741 143 770 143 c 0
 776 143 782 138 782 126 c 0
 782 66 704 -5 664 -5 c 0
 536 -5 449 5 388 5 c 0
 333 5 313 -3 264 -3 c 0
 244 -3 234 2 234 9 c 0
 234 20 245 25 250 25 c 0
 254 25 266 25 280 35 c 0
 302 52 314 78 314 231 c 2
 314 355 l 2
 314 410 316 466 316 528 c 0
 316 557 315 587 314 619 c 0
 312 661 273 680 234 681 c 0
 220 681 218 687 218 695 c 0
EndSplineSet
EndChar
StartChar: M
Encoding: 77 77 22
Width: 1000
Flags: MW
LayerCount: 2
Back
Fore
SplineSet
60 695 m 0
 60 702 63 710 78 710 c 0
 89 710 123 706 132 706 c 0
 159 706 187 708 206 708 c 0
 218 708 227 702 230 694 c 0
 324 490 484 137 498 137 c 0
 509 137 521 169 532 192 c 2
 660 458 l 2
 766 679 758 671 764 683 c 0
 771 696 767 710 802 710 c 0
 845 710 825 708 888 708 c 0
 895 708 904 708 904 695 c 0
 904 683 900 677 872 673 c 0
 841 669 826 651 826 564 c 0
 826 329 838 274 838 182 c 0
 838 44 857 27 922 27 c 0
 932 27 940 18 940 13 c 0
 940 -3 935 -3 918 -3 c 0
 864 -3 849 1 816 1 c 0
 764 1 748 -4 712 -4 c 0
 696 -4 694 4 694 10 c 0
 694 39 742 7 758 75 c 0
 760 85 762 109 762 139 c 0
 762 252 748 466 748 469 c 0
 748 497 745 512 740 512 c 0
 731 512 718 485 700 449 c 2
 562 168 l 2
 486 13 490 12 478 12 c 0
 458 12 453 47 424 106 c 0
 236 488 238 489 230 489 c 0
 225 489 223 479 223 449 c 0
 221 303 214 261 214 185 c 2
 214 140 l 2
 214 87 214 34 290 26 c 0
 296 26 304 20 304 15 c 0
 304 -1 301 -3 290 -3 c 0
 256 -3 200 1 186 1 c 0
 174 1 148 -2 104 -2 c 0
 91 -2 82 -1 82 14 c 0
 82 41 136 1 158 90 c 0
 165 120 178 397 178 489 c 0
 178 618 163 659 74 680 c 0
 61 683 60 690 60 695 c 0
EndSplineSet
EndChar
StartChar: N
Encoding: 78 78 23
Width: 1000
Flags: MW
LayerCount: 2
Back
Fore
SplineSet
128 691 m 0
 128 698 138 708 153 708 c 0
 164 708 182 707 191 707 c 0
 218 707 221 709 240 709 c 0
 252 709 272 700 275 692 c 0
 279 684 309 655 337 618 c 0
 440 484 639 259 701 191 c 0
 729 160 739 146 746 146 c 0
 755 146 756 176 756 208 c 2
 756 325 l 2
 756 478 754 509 754 530 c 2
 754 537 l 2
 754 677 700 663 658 676 c 0
 644 680 638 687 638 693 c 0
 638 701 641 708 657 708 c 0
 669 708 741 707 752 707 c 0
 794 707 823 709 842 709 c 0
 864 709 872 706 872 692 c 0
 872 681 839 673 837 672 c 0
 828 667 804 643 804 559 c 2
 804 521 l 2
 804 380 793 125 793 26 c 2
 793 6 l 2
 793 -7 791 -17 779 -17 c 0
 773 -17 766 -13 763 -10 c 0
 320 503 305 520 295 520 c 0
 288 520 285 493 285 452 c 0
 285 290 277 176 277 128 c 0
 277 -4 375 46 375 13 c 0
 375 -3 370 -4 359 -4 c 0
 330 -4 340 -2 252 -2 c 0
 231 -2 203 -4 167 -4 c 0
 154 -4 145 -3 145 12 c 0
 145 38 195 6 219 88 c 0
 228 121 243 426 243 499 c 0
 243 613 213 668 141 676 c 0
 128 677 128 686 128 691 c 0
EndSplineSet
EndChar
StartChar: O
Encoding: 79 79 24
Width: 1000
Flags: MW
LayerCount: 2
Back
Fore
SplineSet
118 339 m 0
 118 554 249 722 504 722 c 0
 806 722 882 494 882 392 c 0
 882 111 709 -16 490 -16 c 0
 242 -16 118 159 118 339 c 0
206 390 m 0
 206 263 296 28 522 28 c 0
 633 28 800 116 800 300 c 0
 800 552 646 682 470 682 c 0
 336 682 206 594 206 390 c 0
EndSplineSet
EndChar
StartChar: P
Encoding: 80 80 25
Width: 1000
Flags: MW
LayerCount: 2
Back
Fore
SplineSet
242 694 m 0
 242 702 250 710 266 710 c 0
 276 710 272 711 302 711 c 0
 313 711 344 708 362 708 c 0
 405 708 493 711 528 711 c 0
 642 711 757 653 757 527 c 0
 757 354 593 319 540 319 c 0
 498 319 442 331 442 342 c 0
 442 353 447 357 454 357 c 0
 468 357 480 349 506 349 c 0
 560 349 672 377 672 489 c 0
 672 567 607 671 470 671 c 0
 431 671 416 659 416 569 c 0
 416 174 414 468 414 156 c 0
 414 87 433 56 456 41 c 0
 491 19 538 45 538 10 c 0
 538 -4 527 -7 516 -7 c 0
 476 -7 387 -2 372 -2 c 0
 347 -2 324 -6 280 -6 c 0
 269 -6 248 -6 248 5 c 0
 248 28 263 28 286 34 c 0
 300 38 306 31 322 78 c 0
 332 107 336 371 336 431 c 0
 336 536 336 575 336 601 c 0
 336 625 321 681 262 681 c 0
 251 681 242 684 242 694 c 0
EndSplineSet
EndChar
StartChar: Q
Encoding: 81 81 26
Width: 1000
Flags: MW
LayerCount: 2
Back
Fore
SplineSet
100 339 m 0
 100 550 207 722 487 722 c 0
 779 722 850 476 850 367 c 0
 850 229 773 57 636 20 c 0
 576 3 565 1 565 -3 c 0
 565 -9 572 -17 584 -22 c 0
 664 -58 809 -127 891 -127 c 0
 957 -127 956 -94 984 -94 c 0
 989 -94 994 -103 994 -106 c 0
 994 -154 906 -194 820 -194 c 0
 673 -194 373 10 297 10 c 0
 230 10 207 -49 207 -96 c 2
 207 -114 l 2
 207 -128 204 -140 189 -140 c 0
 176 -140 165 -119 165 -98 c 0
 165 -34 201 21 229 41 c 0
 240 49 251 55 251 59 c 0
 251 62 241 70 229 78 c 0
 144 139 100 234 100 339 c 0
191 390 m 0
 191 310 215 221 265 152 c 0
 321 74 438 28 503 28 c 0
 560 28 612 48 647 66 c 0
 691 89 772 177 772 300 c 0
 772 515 629 682 453 682 c 0
 319 682 191 594 191 390 c 0
EndSplineSet
EndChar
StartChar: R
Encoding: 82 82 27
Width: 1000
Flags: MW
LayerCount: 2
Back
Fore
SplineSet
195 696 m 0
 195 709 203 712 224 712 c 2
 390 712 l 2
 433 712 455 715 490 715 c 0
 604 715 708 654 708 547 c 0
 708 399 583 372 583 356 c 0
 583 340 741 119 782 76 c 0
 786 71 822 29 874 29 c 0
 880 29 888 25 888 17 c 0
 888 0 886 -8 814 -8 c 0
 811 -8 764 -6 728 15 c 0
 675 46 600 172 549 255 c 0
 507 323 487 333 475 333 c 2
 454 333 l 1
 393 333 l 2
 378 333 376 333 376 262 c 0
 376 121 377 135 377 121 c 0
 377 0 500 42 500 9 c 0
 500 -1 496 -7 482 -7 c 0
 478 -7 349 0 339 0 c 0
 291 0 240 -4 229 -4 c 0
 219 -4 208 -1 208 12 c 0
 208 47 292 3 292 113 c 0
 292 177 293 317 293 428 c 0
 293 533 292 570 292 597 c 0
 292 705 195 665 195 696 c 0
376 536 m 2
 376 405 376 385 384 380 c 0
 397 372 408 371 427 371 c 2
 437 371 l 1
 466 371 l 2
 588 371 624 439 624 510 c 0
 624 579 573 674 429 674 c 0
 378 674 376 654 376 564 c 2
 376 536 l 2
EndSplineSet
EndChar
StartChar: S
Encoding: 83 83 28
Width: 1000
Flags: MW
LayerCount: 2
Back
Fore
SplineSet
260 187 m 0
 260 202 267 208 274 208 c 0
 280 208 288 204 290 198 c 0
 315 137 366 31 510 31 c 0
 611 31 676 89 676 174 c 0
 676 309 502 301 372 379 c 0
 315 413 280 458 280 526 c 0
 280 645 376 722 512 722 c 0
 576 722 642 689 656 689 c 0
 662 689 673 697 680 697 c 0
 686 697 693 694 694 689 c 0
 702 643 716 567 716 553 c 0
 716 532 708 525 702 525 c 0
 694 525 691 530 688 539 c 0
 663 600 651 607 622 633 c 0
 585 666 536 681 490 681 c 0
 411 681 344 640 344 570 c 0
 344 410 577 454 700 322 c 0
 724 296 740 261 740 215 c 0
 740 71 633 -13 506 -13 c 0
 421 -13 372 -8 310 25 c 0
 289 37 260 178 260 187 c 0
EndSplineSet
EndChar
StartChar: T
Encoding: 84 84 29
Width: 1000
Flags: MW
LayerCount: 2
Back
Fore
SplineSet
168 580 m 0
 168 609 174 658 178 683 c 0
 181 705 180 718 210 718 c 0
 280 718 271 710 492 710 c 0
 640 710 747 712 800 715 c 0
 802 715 804 716 806 716 c 0
 823 716 826 702 826 699 c 0
 826 687 831 626 831 618 c 0
 831 583 829 580 816 580 c 0
 814 580 807 581 804 592 c 0
 791 639 788 658 704 658 c 2
 574 658 l 2
 542 658 538 654 538 594 c 2
 538 545 l 2
 538 312 536 270 536 179 c 0
 536 153 534 132 534 114 c 0
 534 87 536 69 548 57 c 0
 586 20 632 39 632 13 c 0
 632 -3 625 -4 608 -4 c 0
 582 -4 531 4 498 4 c 0
 472 4 428 -3 396 -3 c 0
 375 -3 358 1 358 13 c 0
 358 34 385 30 410 36 c 0
 428 40 445 49 448 76 c 0
 456 146 458 412 458 454 c 0
 458 560 458 633 458 633 c 2
 458 658 455 661 382 661 c 0
 234 661 231 650 220 636 c 0
 193 600 205 563 180 563 c 0
 174 563 168 566 168 580 c 0
EndSplineSet
EndChar
StartChar: U
Encoding: 85 85 30
Width: 1000
Flags: MW
LayerCount: 2
Back
Fore
SplineSet
112 697 m 0
 112 704 113 710 136 710 c 0
 164 710 192 706 248 706 c 0
 295 706 267 708 342 708 c 0
 351 708 364 707 364 694 c 0
 364 660 294 724 294 580 c 2
 294 552 l 2
 294 465 292 395 292 336 c 0
 292 199 292 28 524 28 c 0
 636 28 784 29 784 324 c 0
 784 494 782 494 782 536 c 0
 782 590 781 646 746 670 c 0
 722 687 684 676 684 692 c 0
 684 700 688 708 704 708 c 0
 716 708 771 706 782 706 c 0
 824 706 847 709 866 709 c 0
 887 709 888 701 888 696 c 0
 888 680 851 674 840 653 c 0
 831 636 828 624 828 587 c 0
 828 570 830 550 830 520 c 0
 830 138 791 55 668 3 c 0
 632 -12 558 -19 524 -19 c 0
 402 -19 336 1 288 45 c 0
 208 118 206 209 206 414 c 2
 206 431 l 2
 206 500 208 544 208 575 c 0
 208 644 202 668 134 678 c 0
 113 681 112 692 112 697 c 0
EndSplineSet
EndChar
StartChar: V
Encoding: 86 86 31
Width: 1000
Flags: MW
LayerCount: 2
Back
Fore
SplineSet
116 696 m 0
 116 709 133 710 144 710 c 0
 166 710 188 706 254 706 c 0
 272 706 299 708 320 708 c 0
 350 708 352 707 352 697 c 0
 352 682 312 683 312 650 c 0
 312 608 344 557 452 312 c 0
 485 236 539 119 552 119 c 0
 562 119 764 596 764 649 c 0
 764 696 692 676 692 700 c 0
 692 709 694 710 712 710 c 0
 724 710 741 709 776 709 c 0
 814 709 815 711 864 711 c 0
 875 711 884 709 884 697 c 0
 884 675 847 687 820 625 c 2
 596 117 l 2
 532 -29 539 -30 528 -30 c 0
 522 -30 507 -24 482 39 c 0
 450 118 425 173 380 271 c 0
 238 579 238 611 210 643 c 0
 160 699 116 661 116 696 c 0
EndSplineSet
EndChar
StartChar: W
Encoding: 87 87 32
Width: 1000
Flags: MW
LayerCount: 2
Back
Fore
SplineSet
-36 695 m 0
 -36 708 -19 709 -8 709 c 0
 14 709 36 706 102 706 c 0
 150 706 175 709 188 709 c 0
 200 709 202 706 202 697 c 0
 202 681 158 683 158 650 c 0
 158 619 193 557 300 312 c 0
 333 236 378 126 388 126 c 0
 394 126 443 236 470 305 c 0
 480 331 490 340 490 359 c 0
 490 372 377 631 352 659 c 0
 332 681 322 679 308 680 c 0
 268 684 268 687 268 696 c 0
 268 709 285 710 296 710 c 0
 318 710 340 706 406 706 c 0
 415 706 447 710 472 710 c 0
 489 710 502 708 502 702 c 0
 502 687 460 684 460 651 c 0
 460 629 471 605 490 562 c 0
 499 542 529 461 538 461 c 0
 549 461 610 632 610 652 c 0
 610 694 550 679 550 700 c 0
 550 709 558 711 572 711 c 0
 586 711 617 709 636 709 c 2
 652 709 l 2
 665 709 680 710 706 712 c 2
 714 712 l 2
 721 712 728 710 728 702 c 0
 728 684 698 690 682 673 c 0
 673 664 663 649 654 627 c 0
 565 415 564 419 564 399 c 0
 564 394 681 119 698 119 c 0
 714 119 918 616 918 649 c 0
 918 696 844 676 844 700 c 0
 844 709 846 710 864 710 c 0
 876 710 891 709 926 709 c 0
 964 709 967 711 1016 711 c 0
 1027 711 1036 709 1036 697 c 0
 1036 681 1015 683 994 662 c 0
 977 645 973 628 956 590 c 0
 681 -26 686 -27 672 -27 c 0
 661 -27 641 29 626 62 c 0
 584 159 526 301 516 301 c 0
 501 301 390 17 388 9 c 0
 378 -20 376 -30 366 -30 c 0
 345 -30 319 73 228 271 c 0
 155 430 125 511 106 558 c 0
 37 730 -36 649 -36 695 c 0
EndSplineSet
EndChar
StartChar: X
Encoding: 88 88 33
Width: 1000
Flags: MW
LayerCount: 2
Back
Fore
SplineSet
144 701 m 0
 144 712 148 714 186 714 c 0
 228 714 217 710 276 710 c 0
 287 710 372 712 380 712 c 0
 394 712 402 712 402 703 c 0
 402 675 358 697 358 664 c 0
 358 643 394 593 412 567 c 0
 474 473 501 428 512 428 c 0
 519 428 523 434 534 450 c 0
 575 510 666 632 666 655 c 0
 666 702 614 677 614 704 c 0
 614 712 618 714 628 714 c 0
 671 714 675 710 710 710 c 0
 804 710 781 714 804 714 c 0
 812 714 820 712 820 704 c 0
 820 682 787 691 744 661 c 0
 727 649 713 630 692 602 c 0
 630 519 536 396 536 392 c 0
 536 380 549 369 662 205 c 0
 695 157 764 63 792 40 c 0
 801 32 856 32 856 13 c 0
 856 5 854 -1 824 -1 c 0
 792 -1 727 6 716 6 c 0
 651 6 626 0 614 0 c 0
 606 0 602 2 602 13 c 0
 602 39 652 21 652 56 c 0
 652 80 592 159 496 303 c 0
 490 313 483 320 480 320 c 0
 476 320 469 307 458 289 c 0
 394 189 312 100 312 55 c 0
 312 46 315 28 366 28 c 0
 373 28 378 24 378 11 c 0
 378 1 367 0 346 0 c 0
 328 0 267 3 258 3 c 0
 240 3 199 -1 178 -1 c 0
 160 -1 150 0 150 18 c 0
 150 39 181 20 220 51 c 0
 270 91 330 180 382 253 c 0
 423 310 456 349 456 356 c 0
 456 365 422 405 320 551 c 0
 288 598 230 671 184 681 c 0
 171 684 144 684 144 701 c 0
EndSplineSet
EndChar
StartChar: Y
Encoding: 89 89 34
Width: 1000
Flags: MW
LayerCount: 2
Back
Fore
SplineSet
164 688 m 0
 164 703 176 705 226 705 c 0
 239 705 267 703 284 703 c 0
 307 703 341 704 369 704 c 0
 404 704 419 699 419 692 c 0
 419 671 377 676 377 657 c 0
 377 627 413 581 431 553 c 0
 477 481 536 401 543 401 c 0
 557 401 578 447 610 494 c 0
 645 547 686 605 686 632 c 0
 686 660 669 668 652 672 c 0
 633 676 612 675 612 693 c 0
 612 703 622 705 640 705 c 0
 651 705 665 704 681 704 c 0
 726 704 749 703 787 703 c 0
 815 703 836 702 836 688 c 0
 836 678 814 678 793 661 c 0
 723 606 645 456 582 375 c 0
 560 347 558 322 558 249 c 0
 558 222 559 167 559 133 c 2
 559 109 l 2
 559 37 599 31 612 31 c 0
 615 31 629 30 632 30 c 0
 642 30 647 21 647 16 c 0
 647 3 641 0 623 0 c 0
 609 0 554 1 523 1 c 0
 458 1 454 -3 413 -3 c 0
 391 -3 385 1 385 8 c 0
 385 29 407 22 428 28 c 0
 448 34 470 50 470 89 c 0
 470 114 472 107 472 292 c 0
 472 353 458 354 315 570 c 0
 249 670 218 675 189 675 c 0
 180 675 164 675 164 688 c 0
EndSplineSet
EndChar
StartChar: Z
Encoding: 90 90 35
Width: 1000
Flags: MW
LayerCount: 2
Back
Fore
SplineSet
238 14 m 0
 238 27 269 58 314 139 c 0
 390 274 612 620 612 646 c 0
 612 656 593 657 568 657 c 0
 477 657 423 654 386 653 c 0
 292 651 283 558 266 558 c 0
 261 558 254 561 254 574 c 0
 254 609 262 624 262 640 c 0
 262 656 263 662 266 687 c 0
 268 704 274 708 294 708 c 0
 315 708 381 705 510 705 c 0
 628 705 602 706 690 706 c 0
 719 706 734 703 734 691 c 0
 734 666 366 85 366 64 c 0
 366 44 418 44 482 44 c 0
 607 44 660 47 710 75 c 0
 738 91 742 110 754 110 c 0
 755 110 762 109 762 99 c 0
 762 84 745 55 730 31 c 0
 719 13 717 0 688 0 c 0
 581 0 591 -1 506 -1 c 0
 248 -1 340 -2 258 -2 c 0
 247 -2 238 0 238 14 c 0
EndSplineSet
EndChar
StartChar: bracketleft
Encoding: 91 91 85
Width: 1000
Flags: MW
LayerCount: 2
Back
Fore
SplineSet
800 -82 m 2
 800 77 806 372 806 570 c 0
 806 671 805 721 805 738 c 0
 805 761 818 763 854 763 c 2
 897 763 l 2
 950 763 956 764 963 764 c 0
 972 764 979 754 979 743 c 0
 979 732 975 723 967 723 c 0
 948 723 884 722 875 722 c 2
 859 722 l 2
 854 722 851 722 851 714 c 0
 851 698 853 652 853 559 c 0
 853 402 848 165 848 15 c 0
 848 -27 848 -82 849 -132 c 0
 849 -144 851 -159 861 -159 c 0
 879 -159 942 -158 951 -158 c 0
 969 -158 975 -163 975 -180 c 0
 975 -202 961 -204 923 -204 c 2
 833 -204 l 2
 803 -204 800 -198 800 -143 c 2
 800 -82 l 2
EndSplineSet
EndChar
StartChar: backslash
Encoding: 92 92 86
Width: 1000
Flags: MW
LayerCount: 2
Back
Fore
SplineSet
49 723 m 0
 49 733 61 735 70 735 c 0
 88 735 94 729 105 717 c 0
 110 712 911 -113 911 -113 c 2
 938 -140 939 -161 939 -170 c 0
 939 -183 925 -183 913 -183 c 0
 898 -183 892 -173 872 -152 c 2
 69 679 l 2
 60 689 49 703 49 723 c 0
EndSplineSet
EndChar
StartChar: asciicircum
Encoding: 94 94 88
Width: 1000
Flags: MW
LayerCount: 2
Back
Fore
SplineSet
368 331 m 0
 368 336 377 350 381 356 c 0
 468 502 474 521 501 521 c 0
 529 521 535 501 621 356 c 0
 625 350 632 334 632 329 c 0
 632 322 623 321 614 321 c 2
 599 321 l 2
 582 321 577 339 569 354 c 0
 524 437 510 468 501 468 c 0
 491 468 478 437 433 354 c 0
 425 339 419 322 402 322 c 2
 388 322 l 2
 378 322 368 324 368 331 c 0
EndSplineSet
EndChar
StartChar: underscore
Encoding: 95 95 89
Width: 1000
Flags: MW
LayerCount: 2
Back
Fore
SplineSet
0 -38 m 0
 0 -25 1 -17 19 -17 c 2
 984 -17 l 2
 1000 -17 1000 -24 1000 -38 c 0
 1000 -55 1000 -62 979 -62 c 2
 18 -62 l 2
 0 -62 0 -55 0 -38 c 0
EndSplineSet
EndChar
StartChar: grave
Encoding: 96 96 90
Width: 1000
Flags: MW
LayerCount: 2
Back
Fore
SplineSet
426 636 m 0
 426 657 474 662 478 662 c 0
 482 662 491 659 498 643 c 0
 550 518 575 505 575 491 c 0
 575 485 568 480 562 480 c 0
 554 480 539 495 524 511 c 0
 483 554 426 615 426 636 c 0
EndSplineSet
EndChar
StartChar: a
Encoding: 97 97 36
Width: 1000
Flags: MW
LayerCount: 2
Back
Fore
SplineSet
337 85 m 0
 337 193 442 203 567 225 c 0
 578 227 584 228 584 241 c 0
 584 261 586 277 586 293 c 0
 586 380 517 401 489 401 c 0
 426 401 417 366 417 341 c 0
 417 326 421 314 421 305 c 0
 421 288 414 285 403 285 c 0
 391 285 341 290 341 324 c 0
 341 375 423 434 509 434 c 0
 659 434 659 346 659 308 c 0
 659 178 654 197 654 122 c 0
 654 -11 730 49 730 13 c 0
 730 -2 709 -8 667 -8 c 0
 609 -8 592 47 587 47 c 0
 583 47 527 -15 455 -15 c 0
 412 -15 385 -9 362 15 c 0
 344 33 337 58 337 85 c 0
415 100 m 0
 415 55 442 25 492 25 c 0
 584 25 584 94 584 127 c 2
 584 199 l 2
 584 205 581 208 577 208 c 0
 574 208 570 206 567 206 c 0
 503 195 415 183 415 100 c 0
EndSplineSet
EndChar
StartChar: b
Encoding: 98 98 37
Width: 1000
Flags: MW
LayerCount: 2
Back
Fore
SplineSet
252 691 m 0
 252 712 298 721 317 729 c 0
 338 738 371 756 381 756 c 0
 387 756 396 749 396 738 c 0
 396 702 395 743 395 411 c 0
 395 385 397 375 402 375 c 0
 418 375 418 442 560 442 c 0
 686 442 748 336 748 235 c 0
 748 182 719 80 657 33 c 0
 620 5 574 -11 518 -11 c 0
 425 -11 378 47 371 47 c 0
 360 47 347 -17 322 -17 c 0
 312 -17 310 -13 310 -4 c 0
 310 20 314 72 314 78 c 0
 314 154 323 229 323 342 c 2
 323 589 l 2
 323 632 315 680 278 680 c 2
 268 680 l 2
 260 680 252 682 252 691 c 0
395 132 m 2
 395 109 439 25 541 25 c 0
 638 25 683 102 683 185 c 0
 683 282 621 388 507 388 c 0
 478 388 448 378 427 360 c 0
 398 336 395 325 395 313 c 2
 395 132 l 2
EndSplineSet
EndChar
StartChar: c
Encoding: 99 99 38
Width: 1000
Flags: MW
LayerCount: 2
Back
Fore
SplineSet
306 192 m 0
 306 314 396 429 538 429 c 0
 579 429 652 415 654 396 c 0
 655 384 656 366 656 349 c 0
 656 326 654 305 646 305 c 0
 632 305 629 323 612 337 c 0
 589 357 533 390 480 390 c 0
 460 390 381 363 381 224 c 0
 381 122 455 31 552 31 c 0
 632 31 671 83 684 83 c 0
 690 83 694 78 694 73 c 0
 694 64 641 -21 512 -21 c 0
 388 -21 306 58 306 192 c 0
EndSplineSet
EndChar
StartChar: d
Encoding: 100 100 39
Width: 1000
Flags: MW
LayerCount: 2
Back
Fore
SplineSet
247 195 m 0
 247 314 328 438 490 438 c 0
 535 438 590 409 604 409 c 0
 607 409 609 415 609 445 c 0
 609 574 611 538 611 574 c 0
 611 641 611 686 558 686 c 2
 547 686 l 2
 526 686 526 687 526 694 c 2
 526 695 l 2
 526 710 560 707 639 743 c 0
 651 748 666 758 678 758 c 0
 685 758 690 753 690 738 c 0
 690 717 677 605 677 521 c 0
 677 341 675 228 675 156 c 0
 675 65 681 44 710 35 c 0
 726 30 753 31 753 14 c 0
 753 9 749 2 676 -4 c 0
 647 -6 625 -14 613 -14 c 0
 606 -14 602 -11 602 -3 c 0
 602 6 599 16 599 34 c 0
 599 41 598 51 590 51 c 0
 579 51 539 -14 444 -14 c 0
 313 -14 247 88 247 195 c 0
319 242 m 0
 319 150 381 38 485 38 c 0
 543 38 604 71 604 117 c 0
 605 288 605 271 605 288 c 0
 605 343 591 357 577 365 c 0
 545 384 494 409 458 409 c 0
 369 409 319 335 319 242 c 0
EndSplineSet
EndChar
StartChar: e
Encoding: 101 101 40
Width: 1000
Flags: MW
LayerCount: 2
Back
Fore
SplineSet
306 194 m 0
 306 324 387 432 509 432 c 0
 659 432 693 288 693 273 c 0
 693 259 680 255 652 255 c 2
 425 255 l 1
 395 255 l 2
 384 255 384 254 384 244 c 0
 384 111 470 42 553 42 c 0
 624 42 667 87 684 87 c 0
 689 87 694 82 694 78 c 0
 694 67 634 -19 517 -19 c 0
 410 -19 306 45 306 194 c 0
390 293 m 0
 390 284 392 279 403 279 c 0
 449 279 562 285 579 285 c 0
 598 285 600 288 600 297 c 0
 600 323 571 407 492 407 c 0
 420 407 390 328 390 293 c 0
EndSplineSet
EndChar
StartChar: f
Encoding: 102 102 41
Width: 1000
Flags: MW
LayerCount: 2
Back
Fore
SplineSet
359 385 m 0
 359 410 369 415 401 415 c 2
 422 415 l 2
 439 415 440 424 440 438 c 0
 440 644 588 747 660 747 c 0
 691 747 712 736 712 719 c 0
 712 713 709 703 706 691 c 0
 700 671 699 659 683 659 c 0
 671 659 675 685 612 685 c 0
 528 685 507 556 507 458 c 2
 507 433 l 2
 507 422 509 414 519 414 c 0
 561 414 594 418 615 422 c 0
 624 424 630 432 636 432 c 0
 639 432 641 428 641 424 c 0
 641 407 632 395 627 386 c 0
 623 380 614 377 602 377 c 0
 555 377 586 376 524 376 c 0
 515 376 508 375 508 366 c 2
 508 308 l 2
 508 290 512 153 513 110 c 0
 514 72 514 19 576 19 c 0
 592 19 593 11 593 4 c 0
 593 0 592 -6 582 -6 c 0
 579 -6 505 -1 482 -1 c 0
 445 -1 447 -6 408 -6 c 0
 399 -6 393 -3 393 8 c 0
 393 23 442 16 442 77 c 0
 442 105 438 171 438 359 c 0
 438 374 434 375 421 375 c 0
 410 375 398 372 381 372 c 0
 360 372 359 379 359 385 c 0
EndSplineSet
EndChar
StartChar: g
Encoding: 103 103 42
Width: 1000
Flags: MW
LayerCount: 2
Back
Fore
SplineSet
289 -97 m 0
 289 -36 361 -22 361 -12 c 0
 361 -6 328 3 328 47 c 0
 328 115 380 136 380 146 c 0
 380 162 312 175 312 280 c 0
 312 332 342 433 485 433 c 0
 573 433 597 393 611 393 c 0
 626 393 643 403 662 411 c 0
 688 422 681 459 698 459 c 0
 701 459 711 459 711 451 c 0
 711 416 698 374 689 360 c 0
 678 343 662 335 648 329 c 1
 648 329 659 299 659 279 c 0
 659 194 586 127 494 127 c 0
 449 127 432 136 417 136 c 0
 415 136 372 134 372 87 c 0
 372 38 423 35 506 35 c 2
 552 35 l 2
 599 35 697 32 697 -53 c 0
 697 -70 696 -86 690 -100 c 0
 664 -165 578 -207 475 -207 c 0
 397 -207 289 -184 289 -97 c 0
347 -91 m 0
 347 -154 409 -180 475 -180 c 0
 552 -180 636 -145 636 -89 c 0
 636 -38 582 -38 525 -38 c 2
 516 -38 l 2
 463 -38 404 -24 393 -24 c 0
 384 -24 347 -49 347 -91 c 0
388 290 m 0
 388 210 430 150 488 150 c 0
 551 150 581 207 581 269 c 0
 581 338 545 411 477 411 c 0
 431 411 388 371 388 290 c 0
EndSplineSet
EndChar
StartChar: h
Encoding: 104 104 43
Width: 1000
Flags: MW
LayerCount: 2
Back
Fore
SplineSet
226 697 m 0
 226 716 269 718 296 730 c 0
 323 742 356 758 368 758 c 0
 380 758 380 742 380 735 c 0
 380 721 373 707 373 673 c 0
 370 408 366 408 366 379 c 0
 366 367 368 360 374 360 c 0
 384 360 433 434 516 434 c 0
 619 434 686 376 686 237 c 2
 686 92 l 2
 686 77 692 37 720 34 c 0
 750 31 774 25 774 13 c 0
 774 0 758 -3 742 -3 c 0
 730 -3 679 2 658 2 c 0
 642 2 590 -1 582 -1 c 0
 569 -1 558 1 558 9 c 0
 558 42 612 4 612 72 c 0
 612 89 614 72 614 238 c 0
 614 320 556 388 490 388 c 0
 452 388 417 367 394 349 c 0
 370 330 366 310 366 164 c 2
 366 141 l 2
 366 93 369 46 406 30 c 0
 427 21 456 30 456 12 c 0
 456 6 452 0 446 0 c 0
 445 0 343 5 338 5 c 0
 324 5 283 0 268 0 c 0
 240 0 240 4 240 10 c 0
 240 15 241 20 252 23 c 0
 293 35 298 60 298 100 c 2
 302 441 l 1
 302 490 l 2
 302 665 302 686 260 686 c 0
 245 686 247 687 244 687 c 0
 233 687 226 691 226 697 c 0
EndSplineSet
EndChar
StartChar: i
Encoding: 105 105 44
Width: 1000
Flags: MW
LayerCount: 2
Back
Fore
SplineSet
387 381 m 0
 387 397 412 398 468 421 c 0
 504 436 502 439 518 439 c 0
 524 439 533 434 533 420 c 0
 533 408 527 389 527 372 c 2
 527 98 l 2
 527 33 558 27 583 25 c 0
 600 24 613 24 613 10 c 0
 613 4 612 -7 596 -7 c 0
 592 -7 586 -6 581 -6 c 0
 539 -6 548 -4 510 -4 c 0
 468 -4 456 -6 439 -6 c 0
 414 -6 399 -3 399 7 c 0
 399 14 405 23 414 26 c 0
 453 39 455 33 455 206 c 2
 455 294 l 2
 455 377 419 363 397 371 c 0
 392 373 387 377 387 381 c 0
444 590 m 0
 444 603 472 645 494 645 c 0
 517 645 540 608 540 588 c 0
 540 564 502 533 493 533 c 0
 464 533 444 574 444 590 c 0
EndSplineSet
EndChar
StartChar: j
Encoding: 106 106 45
Width: 1000
Flags: MW
LayerCount: 2
Back
Fore
SplineSet
374 -137 m 0
 374 -120 379 -108 396 -108 c 0
 417 -108 438 -151 454 -151 c 0
 471 -151 477 -117 477 10 c 2
 477 314 l 2
 477 336 476 373 418 373 c 0
 409 373 402 374 402 383 c 0
 402 396 431 391 490 419 c 0
 511 429 529 440 537 440 c 0
 548 440 549 430 549 417 c 2
 549 406 l 2
 549 390 547 371 547 359 c 2
 547 35 l 2
 547 -59 520 -200 415 -200 c 0
 390 -200 376 -193 376 -173 c 0
 376 -162 374 -148 374 -137 c 0
467 591 m 0
 467 608 492 642 514 642 c 0
 537 642 562 611 562 591 c 0
 562 567 527 538 518 538 c 0
 489 538 467 575 467 591 c 0
EndSplineSet
EndChar
StartChar: k
Encoding: 107 107 46
Width: 1000
Flags: MW
LayerCount: 2
Back
Fore
SplineSet
236 689 m 0
 236 697 248 703 286 715 c 0
 338 731 320 724 358 747 c 0
 366 752 381 760 392 760 c 0
 403 760 406 750 406 741 c 0
 406 731 396 677 396 488 c 0
 396 420 393 351 393 283 c 2
 393 262 l 2
 393 241 395 220 398 220 c 0
 412 220 417 232 430 243 c 0
 563 349 570 364 570 370 c 0
 570 394 524 391 524 409 c 0
 524 415 527 419 536 419 c 0
 541 419 546 418 554 418 c 0
 635 420 679 423 702 423 c 0
 724 423 728 420 728 414 c 0
 728 394 698 409 638 371 c 0
 628 365 628 364 590 336 c 0
 490 260 490 262 490 250 c 0
 490 243 496 235 502 227 c 0
 574 139 626 87 658 59 c 0
 722 3 764 36 764 12 c 0
 764 -5 750 -5 722 -5 c 0
 709 -5 628 -4 618 -4 c 0
 588 -4 466 154 434 193 c 0
 431 197 428 199 424 199 c 0
 412 199 392 179 392 153 c 0
 392 148 393 143 393 136 c 0
 397 42 395 65 412 41 c 0
 427 19 486 28 486 9 c 0
 486 -5 460 -7 456 -7 c 0
 446 -7 390 -1 358 -1 c 0
 329 -1 329 -5 286 -5 c 0
 273 -5 262 -4 262 7 c 0
 262 20 279 22 286 24 c 0
 318 36 322 54 322 116 c 0
 322 135 322 152 322 160 c 2
 324 604 l 2
 324 671 295 679 276 679 c 0
 269 679 264 678 256 678 c 0
 245 678 236 680 236 689 c 0
EndSplineSet
EndChar
StartChar: l
Encoding: 108 108 47
Width: 1000
Flags: MW
LayerCount: 2
Back
Fore
SplineSet
380 693 m 0
 380 712 392 706 448 728 c 0
 474 738 504 756 524 756 c 0
 534 756 536 747 536 737 c 0
 536 722 528 676 528 585 c 2
 528 529 l 2
 528 444 526 446 526 396 c 2
 526 98 l 2
 526 66 531 25 607 25 c 0
 614 25 620 17 620 10 c 0
 620 -1 608 -4 589 -4 c 0
 568 -4 519 3 488 3 c 0
 442 3 429 -5 407 -5 c 0
 396 -5 391 2 391 5 c 0
 391 23 410 20 425 27 c 0
 449 38 452 57 452 92 c 0
 452 100 451 108 451 118 c 2
 451 192 l 2
 451 277 455 490 455 617 c 0
 455 648 443 676 431 681 c 0
 424 684 411 685 391 685 c 0
 385 685 380 686 380 693 c 0
EndSplineSet
EndChar
StartChar: n
Encoding: 110 110 49
Width: 1000
Flags: MW
LayerCount: 2
Back
Fore
SplineSet
230 390 m 0
 230 403 257 402 279 408 c 0
 323 420 358 442 368 442 c 2
 370 442 l 2
 377 442 379 437 379 430 c 0
 379 423 377 403 377 387 c 0
 377 369 378 361 382 361 c 0
 389 361 393 380 429 402 c 0
 453 417 484 430 516 430 c 0
 658 430 688 315 688 262 c 0
 688 245 689 262 689 119 c 2
 689 97 l 2
 689 51 693 33 750 24 c 0
 768 21 770 17 770 9 c 0
 770 1 760 -1 750 -1 c 0
 709 -1 690 4 668 4 c 0
 643 4 603 0 591 0 c 0
 578 0 571 5 571 13 c 0
 571 27 594 27 596 28 c 0
 616 34 618 68 618 95 c 2
 618 230 l 2
 618 341 552 386 489 386 c 0
 423 386 381 337 377 325 c 0
 372 311 368 200 368 167 c 2
 368 129 l 2
 368 71 373 32 425 28 c 0
 431 28 466 25 466 13 c 0
 466 2 456 0 447 0 c 0
 410 0 420 4 374 4 c 0
 331 4 271 0 262 0 c 0
 250 0 247 4 247 10 c 0
 247 41 296 -13 300 106 c 0
 302 162 302 152 302 181 c 2
 302 325 l 2
 302 372 282 379 259 379 c 2
 249 379 l 2
 235 379 230 383 230 390 c 0
EndSplineSet
EndChar
StartChar: o
Encoding: 111 111 50
Width: 1000
Flags: MW
LayerCount: 2
Back
Fore
SplineSet
266 203 m 0
 266 316 345 431 502 431 c 0
 619 431 735 355 735 209 c 0
 735 59 614 -18 494 -18 c 0
 341 -18 266 92 266 203 c 0
345 237 m 0
 345 91 439 12 524 12 c 0
 595 12 660 66 660 179 c 0
 660 285 601 404 478 404 c 0
 420 404 345 361 345 237 c 0
EndSplineSet
EndChar
StartChar: p
Encoding: 112 112 51
Width: 1000
Flags: MW
LayerCount: 2
Back
Fore
SplineSet
258 385 m 0
 258 397 286 393 356 426 c 0
 389 442 392 445 398 445 c 0
 405 445 410 442 410 432 c 0
 410 396 406 385 406 373 c 0
 406 368 409 365 410 365 c 0
 417 365 462 434 560 434 c 0
 685 434 743 337 743 233 c 0
 743 119 667 -9 528 -9 c 0
 423 -9 413 29 398 29 c 0
 396 29 396 26 396 21 c 2
 396 -89 l 1
 396 -102 l 2
 396 -124 406 -139 412 -149 c 0
 439 -191 500 -156 500 -188 c 0
 500 -191 497 -200 466 -200 c 0
 440 -200 441 -196 362 -196 c 0
 330 -196 311 -199 298 -199 c 0
 267 -199 264 -196 264 -189 c 0
 264 -158 326 -202 326 -82 c 2
 326 -62 l 2
 326 135 330 172 330 214 c 2
 330 236 l 2
 330 336 327 374 282 374 c 0
 257 374 258 378 258 385 c 0
396 192 m 0
 396 172 396 162 396 142 c 0
 396 44 489 21 544 21 c 0
 635 21 678 100 678 185 c 0
 678 282 622 384 520 384 c 0
 479 384 451 369 430 352 c 0
 405 332 396 319 396 192 c 0
EndSplineSet
EndChar
StartChar: q
Encoding: 113 113 52
Width: 1000
Flags: MW
LayerCount: 2
Back
Fore
SplineSet
246 176 m 0
 246 358 383 432 494 432 c 0
 576 432 627 381 628 381 c 0
 639 381 654 445 677 445 c 0
 683 445 686 442 686 429 c 0
 686 399 677 385 677 232 c 0
 677 49 680 189 680 -80 c 0
 680 -196 754 -160 754 -187 c 0
 754 -195 749 -199 736 -199 c 0
 729 -199 708 -198 666 -198 c 0
 578 -198 579 -203 568 -203 c 0
 547 -203 544 -196 544 -188 c 0
 544 -171 579 -176 594 -166 c 0
 603 -160 606 -151 606 -81 c 0
 606 -39 608 -9 608 11 c 0
 608 52 606 57 602 57 c 0
 585 57 554 -24 440 -24 c 0
 387 -24 351 -10 320 16 c 0
 248 76 246 143 246 176 c 0
316 217 m 0
 316 79 422 29 478 29 c 0
 602 29 606 101 606 139 c 2
 606 302 l 2
 606 359 528 403 472 403 c 0
 423 403 316 368 316 217 c 0
EndSplineSet
EndChar
StartChar: r
Encoding: 114 114 53
Width: 1000
Flags: MW
LayerCount: 2
Back
Fore
SplineSet
368 380 m 0
 368 404 418 401 500 440 c 0
 505 442 513 444 514 444 c 0
 523 444 527 434 527 424 c 0
 527 416 526 407 526 397 c 0
 526 355 528 354 534 354 c 0
 542 354 574 435 639 435 c 0
 660 435 666 429 686 416 c 0
 704 404 707 392 707 387 c 0
 707 346 676 331 673 331 c 0
 650 331 645 355 597 355 c 0
 558 355 523 314 523 293 c 2
 523 189 l 2
 523 83 525 101 525 84 c 0
 525 54 549 34 572 30 c 0
 597 26 623 28 623 13 c 0
 623 6 622 -3 611 -3 c 0
 579 -3 549 2 526 2 c 0
 472 2 439 -3 422 -3 c 0
 400 -3 400 2 400 9 c 0
 400 17 402 23 413 26 c 0
 449 35 450 56 450 135 c 0
 450 326 448 307 448 326 c 0
 448 344 443 363 398 363 c 0
 395 363 391 364 387 364 c 0
 378 364 368 366 368 380 c 0
EndSplineSet
EndChar
StartChar: s
Encoding: 115 115 54
Width: 1000
Flags: MW
LayerCount: 2
Back
Fore
SplineSet
350 43 m 2
 350 130 l 2
 350 145 358 156 365 156 c 0
 386 156 382 136 391 113 c 0
 401 88 433 21 495 21 c 0
 526 21 582 35 582 92 c 0
 582 213 358 170 358 314 c 0
 358 391 431 438 509 438 c 0
 613 438 623 408 623 401 c 0
 623 398 627 352 627 341 c 0
 627 319 623 312 609 312 c 0
 592 312 578 404 488 404 c 0
 450 404 421 383 421 353 c 0
 421 294 480 281 528 263 c 0
 623 227 650 197 650 119 c 0
 650 81 626 41 597 15 c 0
 583 3 558 -16 498 -16 c 0
 446 -16 401 6 386 11 c 0
 362 19 350 18 350 43 c 2
EndSplineSet
EndChar
StartChar: t
Encoding: 116 116 55
Width: 1000
Flags: MW
LayerCount: 2
Back
Fore
SplineSet
350 384 m 0
 350 400 369 402 404 438 c 0
 444 480 460 520 480 520 c 0
 488 520 490 514 490 497 c 0
 490 479 486 459 486 440 c 0
 486 421 487 420 528 420 c 2
 562 420 l 2
 627 420 629 434 640 434 c 0
 647 434 650 429 650 423 c 0
 650 413 626 368 618 368 c 0
 545 369 513 375 512 375 c 0
 486 375 482 370 482 342 c 0
 482 314 478 209 478 156 c 0
 478 75 489 40 564 40 c 0
 600 40 627 59 638 59 c 0
 645 59 648 57 648 47 c 0
 648 32 597 -10 538 -10 c 0
 411 -10 404 68 404 107 c 2
 404 122 l 2
 404 210 408 347 408 355 c 0
 408 368 403 371 386 371 c 0
 379 371 373 370 368 370 c 0
 356 370 350 372 350 384 c 0
EndSplineSet
EndChar
StartChar: u
Encoding: 117 117 56
Width: 1000
Flags: MW
LayerCount: 2
Back
Fore
SplineSet
237 394 m 0
 237 407 246 416 304 416 c 0
 317 416 355 421 361 421 c 0
 384 421 384 418 384 371 c 0
 384 318 379 300 379 195 c 0
 379 63 446 34 490 34 c 0
 573 34 612 63 612 156 c 2
 610 294 l 2
 610 356 607 378 564 382 c 0
 553 383 542 387 542 395 c 0
 542 409 562 418 630 418 c 0
 645 418 657 423 666 423 c 0
 687 423 690 418 690 395 c 0
 690 389 685 276 685 140 c 0
 685 60 691 35 713 35 c 0
 722 35 731 36 739 36 c 0
 753 36 763 33 763 23 c 0
 763 7 754 6 726 6 c 0
 696 6 635 -5 625 -5 c 0
 612 -5 613 46 607 46 c 0
 599 46 553 -18 463 -18 c 0
 363 -18 302 34 302 156 c 0
 302 318 303 300 303 336 c 0
 303 366 283 380 273 380 c 2
 255 380 l 2
 244 380 237 383 237 394 c 0
EndSplineSet
EndChar
StartChar: v
Encoding: 118 118 57
Width: 1000
Flags: MW
LayerCount: 2
Back
Fore
SplineSet
258 416 m 0
 258 425 271 427 277 427 c 0
 284 427 308 423 348 423 c 0
 377 423 377 422 406 422 c 0
 419 422 434 425 445 425 c 0
 455 425 463 421 463 414 c 0
 463 398 453 397 439 397 c 0
 421 397 397 396 397 369 c 0
 397 348 422 303 466 204 c 0
 487 159 511 95 520 95 c 0
 533 95 632 329 632 360 c 0
 632 420 570 377 570 412 c 0
 570 423 581 425 601 425 c 0
 618 425 641 424 668 424 c 0
 688 424 703 425 714 425 c 0
 737 425 742 421 742 410 c 0
 742 397 724 403 703 374 c 0
 641 288 526 -14 491 -14 c 0
 471 -14 482 -13 357 264 c 0
 283 428 258 391 258 416 c 0
EndSplineSet
EndChar
StartChar: w
Encoding: 119 119 58
Width: 1000
Flags: MW
LayerCount: 2
Back
Fore
SplineSet
146 416 m 0
 146 425 158 427 164 427 c 0
 171 427 196 423 236 423 c 0
 265 423 255 424 284 424 c 0
 321 424 332 424 332 413 c 0
 332 393 288 410 288 366 c 0
 288 335 309 283 344 204 c 0
 365 159 383 104 392 104 c 0
 397 104 412 135 432 173 c 0
 480 265 486 270 486 294 c 0
 486 302 471 340 456 362 c 0
 422 411 400 397 400 415 c 0
 400 424 408 424 414 424 c 0
 481 424 414 422 536 422 c 0
 561 422 553 423 566 423 c 0
 587 423 588 412 588 409 c 0
 588 400 585 400 574 399 c 0
 561 398 544 394 544 371 c 0
 544 352 567 281 602 204 c 0
 623 159 641 103 650 103 c 0
 663 103 744 308 744 356 c 0
 744 410 690 385 690 414 c 0
 690 422 699 422 710 422 c 2
 826 422 l 2
 850 422 854 421 854 409 c 0
 854 391 831 401 810 372 c 0
 784 336 788 319 666 60 c 0
 644 13 632 -13 620 -13 c 0
 590 -13 520 246 502 246 c 0
 491 246 391 -10 358 -10 c 0
 342 -10 341 10 238 265 c 0
 212 330 217 352 164 396 c 0
 151 407 146 404 146 416 c 0
EndSplineSet
EndChar
StartChar: x
Encoding: 120 120 59
Width: 1000
Flags: MW
LayerCount: 2
Back
Fore
SplineSet
255 14 m 0
 255 26 265 19 301 41 c 0
 362 79 425 155 458 191 c 0
 460 194 462 196 462 202 c 0
 462 212 419 256 377 311 c 0
 343 355 309 382 300 383 c 0
 275 388 257 401 257 413 c 0
 257 421 264 425 271 425 c 0
 312 425 311 420 349 420 c 0
 380 420 401 424 430 424 c 0
 453 424 456 420 456 411 c 0
 456 397 423 402 423 382 c 0
 423 370 440 352 454 332 c 0
 495 274 508 253 515 253 c 0
 517 253 520 255 525 261 c 0
 597 353 601 354 601 373 c 0
 601 401 555 396 555 412 c 0
 555 417 555 424 581 424 c 0
 600 424 619 423 644 423 c 0
 663 423 684 425 713 425 c 0
 722 425 732 419 732 412 c 0
 732 393 705 410 647 352 c 0
 598 303 532 233 532 226 c 0
 532 219 538 221 623 117 c 0
 647 88 684 37 733 23 c 0
 742 21 745 20 745 11 c 0
 745 2 742 -1 711 -1 c 0
 697 -1 678 1 652 1 c 0
 629 1 612 -1 593 -1 c 2
 582 -1 l 2
 559 -1 548 0 548 9 c 0
 548 21 583 17 583 38 c 0
 583 68 528 117 495 166 c 0
 491 172 489 175 486 175 c 0
 483 175 477 167 475 165 c 0
 433 112 398 84 398 54 c 0
 398 9 445 36 445 8 c 0
 445 2 445 -1 404 -1 c 0
 386 -1 374 2 352 2 c 0
 332 2 315 -2 299 -2 c 0
 272 -2 255 1 255 14 c 0
EndSplineSet
EndChar
StartChar: y
Encoding: 121 121 60
Width: 1000
Flags: MW
LayerCount: 2
Back
Fore
SplineSet
270 412 m 0
 270 421 284 424 290 424 c 0
 344 424 355 422 398 422 c 0
 430 422 427 424 454 424 c 0
 464 424 472 418 472 413 c 0
 472 397 463 395 448 395 c 2
 434 395 l 2
 419 395 417 378 417 367 c 0
 417 342 430 319 478 211 c 0
 499 166 521 104 530 104 c 0
 538 104 618 324 618 358 c 0
 618 418 556 380 556 413 c 0
 556 417 556 425 574 425 c 0
 601 425 628 424 646 424 c 0
 663 424 700 425 708 425 c 0
 722 425 730 420 730 412 c 0
 730 394 700 402 688 385 c 0
 677 369 654 313 634 259 c 2
 546 22 l 2
 489 -130 473 -190 458 -190 c 0
 453 -190 457 -191 412 -191 c 0
 406 -191 392 -189 392 -178 c 0
 392 -167 484 -80 484 -3 c 0
 484 41 364 285 328 353 c 0
 296 414 270 386 270 412 c 0
EndSplineSet
EndChar
StartChar: z
Encoding: 122 122 61
Width: 1000
Flags: MW
LayerCount: 2
Back
Fore
SplineSet
346 15 m 0
 346 33 351 35 380 77 c 0
 434 155 562 341 562 356 c 0
 562 358 553 361 540 361 c 0
 519 361 445 355 418 354 c 0
 377 352 370 297 356 297 c 0
 354 297 348 299 348 308 c 0
 348 349 357 388 360 408 c 0
 361 418 370 426 380 426 c 0
 391 426 424 423 488 423 c 0
 547 423 590 426 634 426 c 0
 640 426 646 422 646 416 c 0
 646 400 625 381 618 370 c 0
 512 204 424 101 424 73 c 0
 424 66 447 64 472 64 c 0
 491 64 511 65 522 65 c 0
 614 65 609 100 622 126 c 0
 626 134 629 140 638 140 c 0
 644 140 655 136 655 126 c 0
 655 125 640 88 630 65 c 0
 619 40 619 2 600 2 c 2
 486 2 l 2
 471 2 440 1 412 1 c 2
 396 1 l 2
 367 1 370 0 364 0 c 0
 354 0 346 4 346 15 c 0
EndSplineSet
EndChar
StartChar: braceleft
Encoding: 123 123 91
Width: 1000
Flags: MW
LayerCount: 2
Back
Fore
SplineSet
777 267 m 0
 777 299 814 288 814 321 c 0
 814 450 810 589 810 734 c 0
 810 749 820 752 828 752 c 0
 848 752 865 744 890 744 c 0
 926 744 939 750 957 750 c 0
 964 750 975 748 975 740 c 0
 975 703 901 685 875 685 c 0
 871 685 868 680 868 676 c 0
 867 532 865 368 865 255 c 0
 865 162 868 14 868 -105 c 0
 868 -115 910 -114 942 -131 c 0
 949 -135 976 -152 976 -172 c 0
 976 -176 975 -181 968 -181 c 0
 963 -181 936 -172 896 -172 c 0
 843 -172 842 -186 821 -186 c 0
 814 -186 809 -181 809 -174 c 0
 809 -44 812 88 812 202 c 0
 812 243 777 237 777 267 c 0
EndSplineSet
EndChar
StartChar: bar
Encoding: 124 124 92
Width: 1000
Flags: MW
LayerCount: 2
Back
Fore
SplineSet
474 -87 m 2
 474 72 480 372 480 570 c 0
 480 671 478 721 478 738 c 0
 478 755 485 762 504 762 c 0
 523 762 526 754 526 737 c 0
 526 731 524 723 524 714 c 0
 524 698 526 652 526 559 c 0
 526 402 522 160 522 10 c 0
 522 -32 521 -87 522 -137 c 0
 522 -142 524 -152 524 -163 c 2
 524 -171 l 2
 524 -190 522 -209 506 -209 c 0
 476 -209 474 -203 474 -148 c 2
 474 -87 l 2
EndSplineSet
EndChar
StartChar: asciitilde
Encoding: 126 126 94
Width: 1000
Flags: MW
LayerCount: 2
Back
Fore
SplineSet
339 172 m 0
 339 175 388 265 444 265 c 0
 490 265 515 220 561 220 c 0
 609 220 630 269 641 269 c 0
 654 269 661 262 661 254 c 0
 661 249 609 164 544 164 c 0
 491 164 473 210 431 210 c 0
 385 210 368 156 359 156 c 0
 346 156 339 160 339 172 c 0
EndSplineSet
EndChar
StartChar: cent
Encoding: 162 162 95
Width: 1000
Flags: MW
LayerCount: 2
Back
Fore
SplineSet
306 192 m 0
 306 290 363 383 458 416 c 0
 496 429 498 417 498 445 c 2
 498 481 l 2
 498 487 506 491 514 491 c 0
 525 491 538 487 538 482 c 2
 538 436 l 2
 538 423 546 433 602 422 c 0
 615 420 629 416 642 409 c 0
 653 403 656 404 656 349 c 0
 656 335 656 305 646 305 c 0
 626 305 640 331 562 369 c 0
 550 375 545 376 542 376 c 0
 539 376 536 373 536 356 c 0
 535 103 534 77 534 45 c 0
 534 37 536 31 552 31 c 0
 632 31 671 83 684 83 c 0
 690 83 694 78 694 73 c 0
 694 63 648 -6 546 -19 c 0
 534 -20 534 -19 534 -33 c 2
 534 -91 l 2
 534 -100 523 -102 512 -102 c 0
 506 -102 496 -100 496 -93 c 2
 496 -29 l 2
 496 -11 491 -28 436 -9 c 0
 356 18 306 88 306 192 c 0
381 224 m 0
 381 102 478 45 490 45 c 0
 493 45 496 48 496 60 c 0
 496 92 495 187 496 376 c 0
 496 390 496 390 480 390 c 0
 460 390 381 363 381 224 c 0
EndSplineSet
EndChar
StartChar: sterling
Encoding: 163 163 96
Width: 1000
Flags: MW
LayerCount: 2
Back
Fore
SplineSet
242 43 m 0
 242 68 259 100 310 100 c 0
 348 100 384 79 390 79 c 0
 396 83 410 119 410 149 c 0
 410 207 370 292 362 311 c 0
 354 329 354 333 336 333 c 0
 323 333 302 332 256 332 c 0
 251 332 242 335 242 354 c 0
 242 373 249 375 256 375 c 2
 314 375 l 2
 329 375 330 376 330 377 c 0
 330 383 300 450 300 522 c 0
 300 663 405 719 502 719 c 0
 587 719 668 676 668 615 c 0
 668 592 641 565 628 565 c 0
 608 565 607 602 586 635 c 0
 567 665 526 683 484 683 c 0
 426 683 369 650 369 569 c 0
 369 500 398 437 416 396 c 0
 423 378 427 376 436 376 c 2
 590 376 l 2
 611 376 612 372 612 354 c 0
 612 339 610 333 588 333 c 2
 466 333 l 2
 457 333 444 332 444 329 c 0
 444 324 472 262 472 203 c 0
 472 129 435 73 432 67 c 1
 443 64 505 50 570 50 c 0
 708 50 729 151 746 151 c 0
 753 151 758 145 758 136 c 0
 758 102 721 -17 602 -17 c 0
 507 -17 412 24 404 27 c 0
 389 26 365 -11 302 -11 c 0
 261 -11 242 16 242 43 c 0
280 44 m 0
 280 32 292 17 312 17 c 0
 341 17 366 43 368 47 c 1
 364 52 332 63 308 63 c 0
 292 63 280 59 280 44 c 0
EndSplineSet
EndChar
StartChar: currency
Encoding: 164 164 131
Width: 1000
Flags: MW
LayerCount: 2
Back
Fore
SplineSet
256 44 m 0
 256 56 265 65 274 74 c 2
 342 143 l 1
 317 176 304 217 304 262 c 0
 304 305 318 347 342 379 c 1
 274 448 l 2
 272 450 256 463 256 478 c 0
 256 494 269 505 282 505 c 0
 294 505 305 496 314 487 c 2
 382 418 l 1
 414 442 457 457 500 457 c 0
 547 457 587 441 618 418 c 1
 686 487 l 2
 688 489 701 504 716 504 c 0
 732 504 744 491 744 478 c 0
 744 466 735 457 726 448 c 2
 656 378 l 1
 680 345 698 304 698 260 c 0
 698 217 680 176 656 144 c 1
 726 74 l 2
 728 72 744 59 744 44 c 0
 744 28 729 17 716 17 c 0
 704 17 695 26 686 35 c 2
 618 104 l 1
 586 80 544 65 500 65 c 0
 457 65 414 79 382 103 c 1
 314 35 l 2
 312 33 297 18 282 18 c 0
 266 18 256 31 256 44 c 0
360 260 m 0
 360 181 424 120 500 120 c 0
 576 120 640 183 640 261 c 0
 640 338 577 404 500 404 c 0
 422 404 360 338 360 260 c 0
EndSplineSet
EndChar
StartChar: yen
Encoding: 165 165 97
Width: 1000
Flags: MW
LayerCount: 2
Back
Fore
SplineSet
164 688 m 0
 164 703 176 705 226 705 c 0
 239 705 267 703 284 703 c 0
 307 703 341 704 369 704 c 0
 404 704 419 699 419 692 c 0
 419 671 377 676 377 657 c 0
 377 627 413 581 431 553 c 0
 473 487 532 406 539 406 c 2
 547 406 l 2
 561 406 568 432 610 494 c 0
 645 547 686 605 686 632 c 0
 686 692 612 659 612 693 c 0
 612 703 622 705 640 705 c 0
 651 705 665 704 681 704 c 0
 726 704 749 703 787 703 c 0
 815 703 836 702 836 688 c 0
 836 678 814 678 793 661 c 0
 749 626 702 554 658 485 c 2
 627 438 l 2
 615 420 607 413 607 409 c 0
 607 406 608 405 719 405 c 0
 725 405 733 399 733 382 c 0
 733 363 726 362 719 362 c 0
 595 362 609 361 582 361 c 0
 568 361 558 352 558 254 c 0
 558 243 559 241 567 241 c 0
 570 241 575 242 581 242 c 2
 706 242 l 2
 729 242 729 235 729 219 c 0
 729 206 729 197 704 197 c 0
 652 197 601 196 575 196 c 0
 560 196 558 195 558 183 c 0
 558 178 559 163 559 133 c 2
 559 109 l 2
 559 37 599 29 612 29 c 0
 615 29 629 25 632 25 c 0
 642 25 647 19 647 14 c 0
 647 1 640 0 629 0 c 0
 592 0 560 1 532 1 c 0
 483 1 428 -4 413 -4 c 0
 391 -4 388 1 388 8 c 0
 388 28 407 21 428 27 c 0
 448 33 470 50 470 89 c 0
 470 97 472 147 472 183 c 0
 472 196 470 197 455 197 c 2
 392 197 l 2
 357 197 327 198 317 198 c 0
 311 198 303 203 303 220 c 0
 303 239 309 241 316 241 c 2
 337 241 l 1
 436 241 l 1
 451 241 l 2
 469 241 473 243 473 258 c 0
 473 265 472 274 472 292 c 0
 472 324 463 358 445 360 c 0
 441 360 436 361 430 361 c 2
 330 361 l 2
 307 361 306 368 306 384 c 0
 306 397 307 405 332 405 c 0
 423 405 423 406 423 408 c 0
 423 410 418 417 409 431 c 2
 311 577 l 2
 248 671 218 675 189 675 c 0
 180 675 164 675 164 688 c 0
EndSplineSet
EndChar
StartChar: brokenbar
Encoding: 166 166 98
Width: 1000
Flags: MW
LayerCount: 2
Back
Fore
SplineSet
474 -148 m 0
 474 -101 476 -124 476 176 c 0
 476 193 483 201 502 201 c 0
 521 201 523 193 523 176 c 0
 523 -151 524 -119 524 -171 c 0
 524 -190 523 -209 507 -209 c 0
 477 -209 474 -203 474 -148 c 0
479 414 m 2
 479 738 l 2
 479 755 485 762 504 762 c 0
 523 762 526 754 526 737 c 2
 526 391 l 2
 526 372 526 353 510 353 c 0
 480 353 479 359 479 414 c 2
EndSplineSet
EndChar
StartChar: section
Encoding: 167 167 99
Width: 1000
Flags: MW
LayerCount: 2
Back
Fore
SplineSet
288 275 m 0
 288 391 389 416 389 425 c 0
 389 438 301 455 301 552 c 0
 301 650 384 720 493 720 c 0
 574 720 599 693 623 693 c 0
 627 693 638 700 646 700 c 0
 652 700 663 697 664 690 c 0
 671 644 684 569 684 555 c 0
 684 532 677 526 671 526 c 0
 638 526 659 616 562 665 c 0
 541 676 513 683 478 683 c 0
 393 683 362 621 362 585 c 0
 362 562 372 538 409 517 c 0
 505 463 712 447 712 287 c 0
 712 220 695 198 672 167 c 0
 651 138 636 138 636 131 c 0
 636 122 672 120 695 65 c 0
 703 45 708 25 708 9 c 0
 708 -112 611 -181 489 -181 c 0
 436 -181 397 -177 333 -143 c 0
 310 -131 289 8 289 16 c 0
 289 31 294 40 304 40 c 0
 311 40 319 35 322 28 c 0
 326 19 372 -136 497 -136 c 0
 574 -136 652 -100 652 -23 c 0
 652 97 288 75 288 275 c 0
348 307 m 0
 348 279 365 249 406 225 c 0
 438 205 588 153 593 153 c 0
 609 153 656 201 656 253 c 0
 656 307 608 342 544 367 c 2
 544 367 447 404 436 404 c 0
 424 404 348 371 348 307 c 0
EndSplineSet
EndChar
StartChar: dieresis
Encoding: 168 168 100
Width: 1000
Flags: MW
LayerCount: 2
Back
Fore
SplineSet
372 591 m 0
 372 608 398 642 420 642 c 0
 443 642 467 611 467 591 c 0
 467 567 433 538 424 538 c 0
 395 538 372 575 372 591 c 0
532 591 m 0
 532 608 558 642 580 642 c 0
 603 642 627 611 627 591 c 0
 627 567 593 538 584 538 c 0
 555 538 532 575 532 591 c 0
EndSplineSet
EndChar
StartChar: logicalnot
Encoding: 172 172 101
Width: 1000
Flags: MW
LayerCount: 2
Back
Fore
SplineSet
267 215 m 0
 267 232 277 232 286 232 c 2
 713 232 l 2
 730 232 733 230 733 213 c 2
 733 55 l 2
 733 45 730 40 717 40 c 0
 698 40 688 40 688 60 c 2
 688 171 l 2
 688 185 678 188 662 188 c 2
 286 188 l 2
 267 188 267 196 267 215 c 0
EndSplineSet
EndChar
StartChar: degree
Encoding: 176 176 102
Width: 1000
Flags: MW
LayerCount: 2
Back
Fore
SplineSet
30 611 m 0
 30 653 71 713 132 713 c 0
 204 713 230 643 230 606 c 0
 230 533 148 504 130 504 c 0
 40 504 30 581 30 611 c 0
72 610 m 0
 72 573 95 548 130 548 c 0
 140 548 188 558 188 608 c 0
 188 630 179 669 130 669 c 0
 103 669 72 644 72 610 c 0
EndSplineSet
EndChar
StartChar: plusminus
Encoding: 177 177 103
Width: 1000
Flags: MW
LayerCount: 2
Back
Fore
SplineSet
268 90 m 0
 268 108 268 117 286 117 c 2
 714 117 l 2
 729 117 732 112 732 97 c 0
 732 82 732 73 712 73 c 2
 284 73 l 2
 273 73 268 75 268 90 c 0
268 324 m 0
 268 336 271 346 286 346 c 2
 466 346 l 2
 475 346 478 350 478 356 c 2
 478 365 l 1
 478 495 l 2
 478 506 485 510 494 510 c 0
 518 510 522 507 522 493 c 2
 522 365 l 1
 522 357 l 2
 522 351 524 346 534 346 c 2
 716 346 l 2
 725 346 732 344 732 331 c 0
 732 311 733 301 712 301 c 2
 534 301 l 2
 524 301 522 294 522 284 c 2
 522 152 l 2
 522 139 516 138 506 138 c 0
 485 138 478 139 478 152 c 2
 478 284 l 2
 478 297 477 301 462 301 c 2
 284 301 l 2
 267 301 268 309 268 324 c 0
EndSplineSet
EndChar
StartChar: acute
Encoding: 180 180 104
Width: 1000
Flags: MW
LayerCount: 2
Back
Fore
SplineSet
426 491 m 0
 426 505 449 518 501 643 c 0
 508 659 518 662 522 662 c 0
 526 662 574 657 574 636 c 0
 574 615 518 554 477 511 c 0
 462 495 446 480 438 480 c 0
 432 480 426 485 426 491 c 0
EndSplineSet
EndChar
StartChar: paragraph
Encoding: 182 182 105
Width: 1000
Flags: MW
LayerCount: 2
Back
Fore
SplineSet
293 505 m 0
 293 636 404 715 492 715 c 0
 545 715 583 716 626 716 c 0
 644 716 664 718 686 718 c 2
 698 718 l 2
 702 718 707 711 707 708 c 0
 707 692 678 695 661 677 c 0
 653 668 647 651 647 611 c 0
 647 409 644 296 644 94 c 0
 644 -60 570 -185 453 -185 c 0
 427 -185 409 -183 386 -170 c 0
 382 -168 378 -153 378 -144 c 0
 378 -124 395 -78 408 -78 c 0
 428 -78 417 -155 486 -155 c 0
 549 -155 552 -20 552 55 c 0
 552 67 553 78 553 86 c 0
 553 152 550 216 550 307 c 0
 550 319 538 321 525 321 c 0
 428 321 293 337 293 505 c 0
476 503 m 0
 476 415 485 350 524 350 c 0
 535 350 551 357 551 369 c 2
 551 404 l 2
 551 446 549 481 549 517 c 0
 549 652 552 638 552 652 c 0
 552 680 545 693 524 693 c 0
 514 693 492 688 487 672 c 0
 476 637 476 628 476 503 c 0
575 506 m 0
 575 454 576 405 576 356 c 0
 576 191 579 59 579 26 c 0
 579 -41 576 -33 576 -48 c 0
 576 -55 577 -59 583 -59 c 0
 590 -59 620 13 620 120 c 0
 620 337 618 485 618 678 c 0
 618 689 606 696 595 696 c 0
 587 696 577 691 577 683 c 0
 576 619 575 560 575 506 c 0
EndSplineSet
EndChar
StartChar: multiply
Encoding: 215 215 106
Width: 1000
Flags: MW
LayerCount: 2
Back
Fore
SplineSet
325 358 m 0
 325 365 344 384 353 384 c 0
 357 384 362 381 367 376 c 2
 483 261 l 2
 489 255 495 249 502 249 c 0
 505 249 509 250 513 254 c 2
 638 379 l 2
 642 383 647 385 650 385 c 0
 657 385 675 367 675 359 c 0
 675 355 672 350 666 344 c 2
 545 223 l 2
 540 218 537 213 537 210 c 0
 537 206 541 202 545 198 c 2
 669 74 l 2
 674 69 675 65 675 62 c 0
 675 54 656 35 649 35 c 0
 646 35 641 37 636 42 c 2
 513 166 l 2
 508 171 504 173 500 173 c 0
 495 173 491 169 484 162 c 2
 364 42 l 2
 359 37 355 35 352 35 c 0
 345 35 326 53 326 61 c 0
 326 65 329 69 334 74 c 2
 454 195 l 2
 460 201 463 206 463 210 c 0
 463 215 460 219 456 223 c 2
 332 347 l 2
 328 351 325 355 325 358 c 0
EndSplineSet
EndChar
StartChar: divide
Encoding: 247 247 107
Width: 1000
Flags: MW
LayerCount: 2
Back
Fore
SplineSet
268 212 m 0
 268 225 268 232 286 232 c 2
 717 232 l 2
 733 232 733 225 733 211 c 0
 733 194 733 188 712 188 c 2
 285 188 l 2
 267 188 268 195 268 212 c 0
449 320 m 0
 449 342 469 361 491 361 c 0
 513 361 531 343 531 321 c 0
 531 299 512 280 490 280 c 0
 468 280 449 298 449 320 c 0
454 101 m 0
 454 123 473 141 495 141 c 0
 517 141 536 122 536 100 c 0
 536 78 518 60 496 60 c 0
 474 60 454 78 454 101 c 0
EndSplineSet
EndChar
StartChar: quoteleft
Encoding: 8216 8216 108
Width: 1000
Flags: MW
LayerCount: 2
Back
Fore
SplineSet
800 539 m 0
 800 661 889 713 909 713 c 0
 917 713 922 704 922 701 c 0
 922 682 866 675 866 600 c 0
 866 520 935 527 935 491 c 0
 935 483 922 472 908 458 c 0
 896 446 886 427 868 427 c 0
 860 427 800 457 800 539 c 0
EndSplineSet
EndChar
StartChar: quoteright
Encoding: 8217 8217 109
Width: 1000
Flags: MW
LayerCount: 2
Back
Fore
SplineSet
56 649 m 0
 56 657 69 668 83 682 c 0
 95 694 105 713 123 713 c 0
 131 713 190 683 190 601 c 0
 190 479 102 427 82 427 c 0
 74 427 69 436 69 439 c 0
 69 458 125 466 125 541 c 0
 125 621 56 613 56 649 c 0
EndSplineSet
EndChar
StartChar: quotedblleft
Encoding: 8220 8220 110
Width: 1000
Flags: MW
LayerCount: 2
Back
Fore
SplineSet
608 539 m 0
 608 661 697 713 717 713 c 0
 725 713 730 704 730 701 c 0
 730 682 674 675 674 600 c 0
 674 520 743 527 743 491 c 0
 743 483 730 472 716 458 c 0
 704 446 694 427 676 427 c 0
 668 427 608 457 608 539 c 0
804 539 m 0
 804 661 892 713 912 713 c 0
 920 713 925 704 925 701 c 0
 925 682 869 675 869 600 c 0
 869 520 938 527 938 491 c 0
 938 483 925 472 911 458 c 0
 899 446 889 427 871 427 c 0
 863 427 804 457 804 539 c 0
EndSplineSet
EndChar
StartChar: dagger
Encoding: 8224 8224 112
Width: 1000
Flags: MW
LayerCount: 2
Back
Fore
SplineSet
282 539 m 0
 282 555 282 600 302 600 c 0
 311 600 369 549 470 549 c 0
 477 549 482 550 482 556 c 0
 482 637 438 711 438 726 c 0
 438 738 457 747 498 747 c 0
 514 747 560 747 560 727 c 0
 560 718 517 639 517 555 c 0
 517 550 521 548 524 548 c 0
 607 548 681 602 696 602 c 0
 708 602 718 583 718 542 c 0
 718 526 718 481 698 481 c 0
 689 481 645 522 526 522 c 0
 521 522 518 522 518 518 c 0
 518 373 563 349 563 339 c 0
 563 311 520 334 520 -189 c 0
 520 -212 515 -215 504 -215 c 2
 500 -215 l 2
 490 -215 486 -212 486 -189 c 0
 486 332 438 313 438 337 c 0
 438 348 480 362 480 519 c 0
 480 521 479 522 474 522 c 0
 375 522 319 479 304 479 c 0
 292 479 282 498 282 539 c 0
EndSplineSet
EndChar
StartChar: daggerdbl
Encoding: 8225 8225 113
Width: 1000
Flags: MW
LayerCount: 2
Back
Fore
SplineSet
280 16 m 0
 280 33 280 79 300 79 c 0
 309 79 406 31 472 31 c 0
 478 31 482 33 482 37 c 0
 482 176 440 264 440 289 c 0
 440 300 480 322 480 509 c 0
 480 511 477 513 472 513 c 0
 393 513 319 469 304 469 c 0
 292 469 282 488 282 529 c 0
 282 545 282 590 302 590 c 0
 311 590 375 539 470 539 c 0
 477 539 482 540 482 546 c 0
 482 644 438 701 438 716 c 0
 438 728 457 737 498 737 c 0
 514 737 559 737 559 717 c 0
 559 708 516 645 516 545 c 0
 516 540 519 538 522 538 c 0
 607 538 681 592 696 592 c 0
 708 592 716 573 716 532 c 0
 716 516 716 471 696 471 c 0
 687 471 625 513 524 513 c 0
 519 513 518 512 518 508 c 0
 518 330 558 297 558 287 c 0
 558 281 518 196 518 38 c 0
 518 35 520 33 524 33 c 0
 613 33 683 81 698 81 c 0
 710 81 720 59 720 17 c 0
 720 0 720 -46 700 -46 c 0
 694 -46 619 -2 532 -2 c 0
 524 -2 518 -2 518 -15 c 0
 518 -118 565 -169 565 -184 c 0
 565 -196 542 -205 500 -205 c 0
 483 -205 438 -205 438 -185 c 0
 438 -179 482 -100 482 -12 c 0
 482 -6 477 -1 470 -1 c 0
 422 -1 317 -48 302 -48 c 0
 290 -48 280 -26 280 16 c 0
EndSplineSet
EndChar
StartChar: perthousand
Encoding: 8240 8240 118
Width: 1000
Flags: MW
LayerCount: 2
Back
Fore
SplineSet
44 343 m 0
 44 440 119 577 231 577 c 0
 301 577 313 518 371 518 c 0
 447 518 541 610 569 638 c 0
 575 644 581 646 586 646 c 0
 593 646 594 642 594 637 c 0
 594 630 590 621 587 616 c 0
 169 -78 165 -86 154 -90 c 0
 151 -91 148 -92 145 -92 c 0
 129 -92 114 -79 114 -68 c 0
 114 -54 122 -43 151 2 c 2
 305 239 l 2
 424 423 476 503 476 511 c 0
 476 514 474 516 472 516 c 0
 465 516 432 483 375 483 c 0
 352 483 333 493 329 493 c 0
 328 493 328 493 328 492 c 0
 328 490 330 483 330 473 c 0
 330 400 322 361 282 299 c 0
 260 265 223 219 148 219 c 0
 114 219 44 255 44 343 c 0
116 364 m 0
 116 291 136 247 170 247 c 0
 232 247 265 363 265 455 c 0
 265 507 249 547 223 547 c 0
 151 547 116 449 116 364 c 0
351 63 m 0
 351 167 420 293 538 293 c 0
 610 293 640 238 640 170 c 0
 640 62 564 -79 465 -79 c 0
 388 -79 351 -13 351 63 c 0
422 73 m 0
 422 0 442 -46 476 -46 c 0
 534 -46 574 72 574 164 c 0
 574 216 555 261 529 261 c 0
 457 261 422 158 422 73 c 0
667 63 m 0
 667 167 736 293 854 293 c 0
 926 293 956 238 956 170 c 0
 956 62 880 -79 781 -79 c 0
 704 -79 667 -13 667 63 c 0
738 73 m 0
 738 0 758 -46 792 -46 c 0
 850 -46 890 72 890 164 c 0
 890 216 871 261 845 261 c 0
 773 261 738 158 738 73 c 0
EndSplineSet
EndChar
StartChar: overline
Encoding: 8254 8254 114
Width: 1000
Flags: MW
LayerCount: 2
Back
Fore
SplineSet
0 708 m 0
 0 721 1 729 19 729 c 2
 984 729 l 2
 1000 729 1000 722 1000 708 c 0
 1000 691 1000 684 979 684 c 2
 18 684 l 2
 0 684 0 691 0 708 c 0
EndSplineSet
EndChar
StartChar: asterism
Encoding: 8258 8258 133
Width: 1000
Flags: MW
LayerCount: 2
Back
Fore
SplineSet
543 -17 m 0
 543 5 651 38 651 47 c 0
 651 58 543 92 543 113 c 0
 543 122 555 148 575 148 c 0
 591 148 657 95 666 95 c 0
 669 95 671 100 671 114 c 0
 671 135 668 167 668 193 c 0
 668 210 673 214 694 214 c 0
 724 214 731 212 731 178 c 0
 731 160 727 133 727 113 c 0
 727 99 729 95 732 95 c 0
 743 95 812 149 824 149 c 0
 842 149 857 126 857 114 c 0
 857 93 748 58 748 48 c 0
 748 36 857 4 857 -17 c 0
 857 -27 844 -52 823 -52 c 0
 808 -52 740 1 733 1 c 0
 729 1 728 -4 728 -18 c 0
 728 -37 731 -61 731 -76 c 0
 731 -114 728 -118 695 -118 c 0
 680 -118 668 -115 668 -94 c 0
 668 -76 671 -45 671 -22 c 0
 671 -5 670 1 666 1 c 0
 657 1 587 -52 575 -52 c 0
 556 -52 543 -27 543 -17 c 0
143 -17 m 0
 143 5 251 38 251 47 c 0
 251 58 143 92 143 113 c 0
 143 122 155 148 175 148 c 0
 191 148 257 95 266 95 c 0
 269 95 271 100 271 114 c 0
 271 135 268 167 268 193 c 0
 268 210 273 214 294 214 c 0
 324 214 331 212 331 178 c 0
 331 160 327 133 327 113 c 0
 327 99 329 95 332 95 c 0
 343 95 412 149 424 149 c 0
 442 149 457 126 457 114 c 0
 457 93 348 58 348 48 c 0
 348 36 457 4 457 -17 c 0
 457 -27 444 -52 423 -52 c 0
 408 -52 340 1 333 1 c 0
 329 1 328 -4 328 -18 c 0
 328 -37 331 -61 331 -76 c 0
 331 -114 328 -118 295 -118 c 0
 280 -118 268 -115 268 -94 c 0
 268 -76 271 -45 271 -22 c 0
 271 -5 270 1 266 1 c 0
 257 1 187 -52 175 -52 c 0
 156 -52 143 -27 143 -17 c 0
343 383 m 0
 343 405 451 438 451 447 c 0
 451 458 343 492 343 513 c 0
 343 522 355 548 375 548 c 0
 391 548 457 495 466 495 c 0
 469 495 471 500 471 514 c 0
 471 535 468 567 468 593 c 0
 468 610 473 614 494 614 c 0
 524 614 531 612 531 578 c 0
 531 560 527 533 527 513 c 0
 527 499 529 495 532 495 c 0
 543 495 612 549 624 549 c 0
 642 549 657 526 657 514 c 0
 657 493 548 458 548 448 c 0
 548 436 657 404 657 383 c 0
 657 373 644 348 623 348 c 0
 608 348 540 401 533 401 c 0
 529 401 528 396 528 382 c 0
 528 363 531 339 531 324 c 0
 531 286 528 282 495 282 c 0
 480 282 468 285 468 306 c 0
 468 324 471 355 471 378 c 0
 471 395 470 401 466 401 c 0
 457 401 387 348 375 348 c 0
 356 348 343 373 343 383 c 0
EndSplineSet
EndChar
StartChar: questiondbl
Encoding: 8263 8263 129
Width: 1000
Flags: MW
LayerCount: 2
Back
Fore
SplineSet
206 612 m 0
 206 631 251 673 310 673 c 0
 376 673 444 635 444 559 c 0
 444 461 304 357 304 251 c 0
 304 232 309 215 309 205 c 0
 309 199 307 195 301 195 c 0
 279 195 269 252 269 274 c 0
 269 345 361 485 361 548 c 0
 361 607 295 628 270 628 c 0
 240 628 223 603 215 603 c 0
 209 603 206 609 206 612 c 0
228 59 m 0
 228 68 249 87 264 100 c 0
 277 112 289 132 303 132 c 0
 313 132 334 101 338 97 c 0
 342 93 372 72 372 62 c 0
 372 45 349 37 338 26 c 0
 326 14 314 -9 301 -9 c 0
 292 -9 271 11 261 24 c 0
 252 36 228 45 228 59 c 0
556 612 m 0
 556 631 601 673 660 673 c 0
 726 673 794 635 794 559 c 0
 794 461 654 357 654 251 c 0
 654 232 659 215 659 205 c 0
 659 199 657 195 651 195 c 0
 629 195 619 252 619 274 c 0
 619 345 711 485 711 548 c 0
 711 607 645 628 620 628 c 0
 590 628 573 603 565 603 c 0
 559 603 556 609 556 612 c 0
578 59 m 0
 578 68 599 87 614 100 c 0
 627 112 639 132 653 132 c 0
 663 132 684 101 688 97 c 0
 692 93 722 72 722 62 c 0
 722 45 699 37 688 26 c 0
 676 14 664 -9 651 -9 c 0
 642 -9 621 11 611 24 c 0
 602 36 578 45 578 59 c 0
EndSplineSet
EndChar
StartChar: questionexclam
Encoding: 8264 8264 130
Width: 1000
Flags: MW
LayerCount: 2
Back
Fore
SplineSet
254 612 m 0
 254 631 299 673 358 673 c 0
 424 673 492 635 492 559 c 0
 492 461 352 357 352 251 c 0
 352 232 356 215 356 205 c 0
 356 199 354 195 348 195 c 0
 326 195 316 252 316 274 c 0
 316 345 408 485 408 548 c 0
 408 607 343 628 318 628 c 0
 288 628 270 603 262 603 c 0
 256 603 254 609 254 612 c 0
276 59 m 0
 276 68 297 87 312 100 c 0
 325 112 336 132 350 132 c 0
 360 132 382 101 386 97 c 0
 390 93 420 72 420 62 c 0
 420 45 397 37 386 26 c 0
 374 14 361 -9 348 -9 c 0
 339 -9 318 11 308 24 c 0
 299 36 276 45 276 59 c 0
596 63 m 0
 596 72 610 81 626 95 c 0
 639 107 651 133 670 133 c 0
 679 133 685 124 694 115 c 0
 728 79 746 79 746 62 c 0
 746 45 719 33 708 22 c 0
 696 10 686 -13 672 -13 c 0
 663 -13 640 8 630 21 c 0
 621 33 596 45 596 63 c 0
626 651 m 0
 626 675 646 689 676 689 c 0
 705 689 722 683 722 657 c 0
 722 650 719 642 716 618 c 0
 704 520 708 420 682 210 c 0
 681 203 678 199 668 199 c 0
 660 199 656 202 656 208 c 0
 631 506 640 447 636 507 c 0
 631 577 626 605 626 651 c 0
EndSplineSet
EndChar
StartChar: asteriskdbl
Encoding: 8273 8273 132
Width: 1000
Flags: MW
LayerCount: 2
Back
Fore
SplineSet
343 -17 m 0
 343 5 451 38 451 47 c 0
 451 58 343 92 343 113 c 0
 343 122 355 148 375 148 c 0
 391 148 457 95 466 95 c 0
 469 95 471 100 471 114 c 0
 471 135 468 167 468 193 c 0
 468 210 473 214 494 214 c 0
 524 214 531 212 531 178 c 0
 531 160 527 133 527 113 c 0
 527 99 529 95 532 95 c 0
 543 95 612 149 624 149 c 0
 642 149 657 126 657 114 c 0
 657 93 548 58 548 48 c 0
 548 36 657 4 657 -17 c 0
 657 -27 644 -52 623 -52 c 0
 608 -52 540 1 533 1 c 0
 529 1 528 -4 528 -18 c 0
 528 -37 531 -61 531 -76 c 0
 531 -114 528 -118 495 -118 c 0
 480 -118 468 -115 468 -94 c 0
 468 -76 471 -45 471 -22 c 0
 471 -5 470 1 466 1 c 0
 457 1 387 -52 375 -52 c 0
 356 -52 343 -27 343 -17 c 0
343 383 m 0
 343 405 451 438 451 447 c 0
 451 458 343 492 343 513 c 0
 343 522 355 548 375 548 c 0
 391 548 457 495 466 495 c 0
 469 495 471 500 471 514 c 0
 471 535 468 567 468 593 c 0
 468 610 473 614 494 614 c 0
 524 614 531 612 531 578 c 0
 531 560 527 533 527 513 c 0
 527 499 529 495 532 495 c 0
 543 495 612 549 624 549 c 0
 642 549 657 526 657 514 c 0
 657 493 548 458 548 448 c 0
 548 436 657 404 657 383 c 0
 657 373 644 348 623 348 c 0
 608 348 540 401 533 401 c 0
 529 401 528 396 528 382 c 0
 528 363 531 339 531 324 c 0
 531 286 528 282 495 282 c 0
 480 282 468 285 468 306 c 0
 468 324 471 355 471 378 c 0
 471 395 470 401 466 401 c 0
 457 401 387 348 375 348 c 0
 356 348 343 373 343 383 c 0
EndSplineSet
EndChar
StartChar: euro
Encoding: 8364 8364 127
Width: 1000
Flags: MW
LayerCount: 2
Back
Fore
SplineSet
238 291 m 1
 256 338 l 1
 322 338 l 1
 366 488 498 532 570 532 c 0
 647 532 702 510 762 454 c 1
 749 421 740 404 740 404 c 1
 730 421 675 485 574 485 c 0
 507 485 413 450 372 338 c 1
 714 338 l 1
 694 291 l 1
 362 291 l 1
 362 287 362 280 362 271 c 0
 362 262 362 256 362 252 c 1
 678 252 l 1
 658 204 l 1
 372 204 l 1
 407 100 504 57 572 57 c 0
 681 57 738 130 740 132 c 2
 744 132 l 1
 744 71 l 1
 697 33 643 10 576 10 c 0
 489 10 368 55 322 204 c 1
 240 204 l 1
 260 252 l 1
 314 252 l 1
 314 291 l 1
 238 291 l 1
EndSplineSet
EndChar
StartChar: celsius
Encoding: 8451 8451 119
Width: 1000
Flags: MW
LayerCount: 2
Back
Fore
SplineSet
30 611 m 0
 30 653 71 713 132 713 c 0
 204 713 230 643 230 606 c 0
 230 533 148 504 130 504 c 0
 40 504 30 581 30 611 c 0
72 610 m 0
 72 573 95 548 130 548 c 0
 140 548 188 558 188 608 c 0
 188 630 179 669 130 669 c 0
 103 669 72 644 72 610 c 0
216 324 m 0
 216 537 347 714 595 714 c 0
 733 714 845 641 854 641 c 0
 861 641 867 651 875 651 c 0
 881 651 890 646 890 635 c 0
 892 569 904 507 904 495 c 0
 904 479 896 477 892 477 c 0
 886 477 879 484 875 491 c 0
 817 600 725 673 595 673 c 0
 430 673 310 557 310 384 c 0
 310 203 399 26 642 26 c 0
 766 26 844 115 884 176 c 0
 888 183 892 183 899 183 c 0
 905 183 908 176 908 169 c 0
 908 145 894 92 890 71 c 0
 888 62 882 57 874 53 c 0
 787 11 720 -20 616 -20 c 0
 314 -20 216 167 216 324 c 0
EndSplineSet
EndChar
StartChar: mho
Encoding: 8487 8487 128
Width: 1000
Flags: MW
LayerCount: 2
Back
Fore
SplineSet
152 591 m 0
 152 651 230 722 270 722 c 0
 398 722 368 712 396 712 c 0
 421 712 436 707 436 679 c 0
 436 659 431 659 428 652 c 0
 428 652 418 637 410 635 c 0
 328 615 246 472 246 351 c 0
 246 155 358 35 534 35 c 0
 668 35 758 195 758 313 c 0
 758 405 698 601 584 635 c 0
 568 640 568 651 568 651 c 1
 566 659 566 658 564 679 c 0
 562 703 579 712 604 712 c 0
 632 712 602 722 730 722 c 0
 770 722 848 651 848 591 c 0
 848 579 842 574 836 574 c 0
 807 574 798 668 684 668 c 0
 679 668 676 666 668 659 c 0
 663 654 667 639 678 634 c 1
 785 587 846 429 846 312 c 0
 846 213 755 -5 500 -5 c 0
 265 -5 164 205 164 307 c 0
 164 481 217 589 320 633 c 1
 334 641 337 654 332 659 c 0
 324 666 321 668 316 668 c 0
 202 668 193 574 164 574 c 0
 158 574 152 579 152 591 c 0
EndSplineSet
EndChar
StartChar: angstrom
Encoding: 8491 8491 120
Width: 1000
Flags: MW
LayerCount: 2
Back
Fore
SplineSet
423 855 m 0
 423 887 455 932 501 932 c 0
 556 932 575 879 575 851 c 0
 575 795 514 774 500 774 c 0
 432 774 423 832 423 855 c 0
461 854 m 0
 461 830 477 813 500 813 c 0
 507 813 537 819 537 852 c 0
 537 867 532 893 500 893 c 0
 482 893 461 876 461 854 c 0
114 8 m 0
 114 18 120 24 129 27 c 0
 187 49 180 69 477 701 c 0
 486 721 491 724 507 724 c 0
 528 724 515 722 579 563 c 0
 626 447 767 120 775 104 c 0
 825 3 886 49 886 13 c 0
 886 8 884 -2 859 -2 c 0
 836 -2 797 4 769 4 c 0
 733 4 705 0 676 0 c 0
 634 0 628 2 628 14 c 0
 628 36 678 23 678 61 c 0
 678 93 632 213 611 251 c 0
 607 259 603 268 570 268 c 0
 549 268 514 266 449 266 c 2
 396 266 l 2
 334 266 330 261 319 237 c 0
 283 161 255 109 255 81 c 0
 255 12 329 44 329 13 c 0
 329 5 328 -1 312 -1 c 0
 296 -1 264 0 229 0 c 0
 190 0 165 -4 143 -4 c 0
 125 -4 114 -2 114 8 c 0
365 338 m 0
 365 320 374 319 416 319 c 2
 447 319 l 2
 491 319 542 320 542 320 c 2
 568 320 581 325 581 336 c 0
 581 348 489 570 470 570 c 0
 457 570 365 350 365 338 c 0
EndSplineSet
EndChar
StartChar: minus
Encoding: 8722 8722 117
Width: 1000
Flags: MW
LayerCount: 2
Back
Fore
SplineSet
268 212 m 0
 268 225 268 232 286 232 c 2
 717 232 l 2
 733 232 733 225 733 211 c 0
 733 194 733 188 712 188 c 2
 285 188 l 2
 267 188 268 195 268 212 c 0
EndSplineSet
EndChar
StartChar: approxequalorimage
Encoding: 8786 8786 126
Width: 1000
Flags: MW
LayerCount: 2
Back
Fore
SplineSet
268 139 m 0
 268 152 268 160 286 160 c 2
 717 160 l 2
 733 160 733 153 733 139 c 0
 733 122 733 115 712 115 c 2
 285 115 l 2
 267 115 268 122 268 139 c 0
268 285 m 0
 268 298 268 305 286 305 c 2
 717 305 l 2
 733 305 733 298 733 284 c 0
 733 267 733 261 712 261 c 2
 285 261 l 2
 267 261 268 268 268 285 c 0
349 395 m 0
 349 417 369 436 391 436 c 0
 413 436 431 418 431 396 c 0
 431 374 412 355 390 355 c 0
 368 355 349 373 349 395 c 0
554 26 m 0
 554 48 573 66 595 66 c 0
 617 66 636 47 636 25 c 0
 636 3 618 -15 596 -15 c 0
 574 -15 554 3 554 26 c 0
EndSplineSet
EndChar
StartChar: notequal
Encoding: 8800 8800 122
Width: 1000
Flags: MW
LayerCount: 2
Back
Fore
SplineSet
384 -7 m 0
 384 2 395 28 403 50 c 2
 403 50 413 76 427 115 c 1
 285 115 l 2
 267 115 268 122 268 139 c 0
 268 152 268 160 286 160 c 2
 444 160 l 1
 456 192 469 227 482 261 c 1
 285 261 l 2
 267 261 268 268 268 285 c 0
 268 298 268 305 286 305 c 2
 498 305 l 1
 521 366 539 414 540 417 c 0
 545 432 551 435 569 435 c 0
 578 435 590 433 590 423 c 0
 590 414 581 392 576 379 c 2
 549 305 l 1
 717 305 l 2
 733 305 733 298 733 284 c 0
 733 267 733 261 712 261 c 2
 533 261 l 1
 496 160 l 1
 717 160 l 2
 733 160 733 153 733 139 c 0
 733 122 733 115 712 115 c 2
 480 115 l 1
 442 11 l 2
 431 -19 425 -20 410 -20 c 0
 398 -20 384 -20 384 -7 c 0
EndSplineSet
EndChar
StartChar: equivalence
Encoding: 8801 8801 125
Width: 1000
Flags: MW
LayerCount: 2
Back
Fore
SplineSet
268 64 m 0
 268 77 268 85 286 85 c 2
 717 85 l 2
 733 85 733 78 733 64 c 0
 733 47 733 40 712 40 c 2
 285 40 l 2
 267 40 268 47 268 64 c 0
268 360 m 0
 268 373 268 380 286 380 c 2
 717 380 l 2
 733 380 733 373 733 359 c 0
 733 342 733 336 712 336 c 2
 285 336 l 2
 267 336 268 343 268 360 c 0
268 212 m 0
 268 225 268 232 286 232 c 2
 717 232 l 2
 733 232 733 225 733 211 c 0
 733 194 733 188 712 188 c 2
 285 188 l 2
 267 188 268 195 268 212 c 0
EndSplineSet
EndChar
StartChar: lessoverequal
Encoding: 8806 8806 123
Width: 1000
Flags: MW
LayerCount: 2
Back
Fore
SplineSet
277 298 m 0
 277 308 276 314 292 318 c 0
 647 412 698 428 704 428 c 0
 713 428 723 424 723 403 c 0
 723 394 715 389 707 387 c 2
 424 310 l 2
 403 304 382 302 382 297 c 0
 382 292 403 290 424 284 c 2
 712 205 l 2
 718 203 723 199 723 192 c 0
 723 184 717 168 699 168 c 0
 693 168 633 184 291 275 c 0
 277 279 277 284 277 298 c 0
268 19 m 0
 268 32 268 40 286 40 c 2
 717 40 l 2
 733 40 733 33 733 19 c 0
 733 2 733 -5 712 -5 c 2
 285 -5 l 2
 267 -5 268 2 268 19 c 0
268 125 m 0
 268 138 268 145 286 145 c 2
 717 145 l 2
 733 145 733 138 733 124 c 0
 733 107 733 101 712 101 c 2
 285 101 l 2
 267 101 268 108 268 125 c 0
EndSplineSet
EndChar
StartChar: greateroverequal
Encoding: 8807 8807 124
Width: 1000
Flags: MW
LayerCount: 2
Back
Fore
SplineSet
723 298 m 0
 723 284 723 279 709 275 c 0
 367 184 307 168 301 168 c 0
 283 168 277 184 277 192 c 0
 277 199 282 203 288 205 c 2
 576 284 l 2
 597 290 618 292 618 297 c 0
 618 302 597 304 576 310 c 2
 293 387 l 2
 285 389 277 394 277 403 c 0
 277 424 287 428 296 428 c 0
 302 428 353 412 708 318 c 0
 724 314 723 308 723 298 c 0
732 19 m 0
 732 2 733 -5 715 -5 c 2
 288 -5 l 2
 267 -5 267 2 267 19 c 0
 267 33 267 40 283 40 c 2
 714 40 l 2
 732 40 732 32 732 19 c 0
732 125 m 0
 732 108 733 101 715 101 c 2
 288 101 l 2
 267 101 267 107 267 124 c 0
 267 138 267 145 283 145 c 2
 714 145 l 2
 732 145 732 138 732 125 c 0
EndSplineSet
EndChar
StartChar: zero.slash
Encoding: 63032 63032 121
Width: 1000
Flags: MW
LayerCount: 2
Back
Fore
SplineSet
209 323 m 0
 209 566 363 712 542 712 c 0
 588 712 629 703 664 687 c 1
 674 705 680 716 680 717 c 0
 685 732 691 735 709 735 c 0
 718 735 730 733 730 723 c 0
 730 714 721 692 716 679 c 2
 707 654 l 1
 763 591 791 483 791 362 c 0
 791 161 691 -14 489 -14 c 0
 441 -14 401 -6 366 7 c 1
 353 -17 l 1
 353 -17 328 -48 306 -48 c 0
 288 -48 267 -48 267 -35 c 0
 267 -26 283 0 295 22 c 24
 298 28 298 28 304 38 c 1
 233 100 209 210 209 323 c 0
269 390 m 0
 269 298 299 199 353 128 c 1
 427 260 551 483 623 613 c 1
 587 637 542 652 491 652 c 0
 335 652 269 528 269 390 c 0
404 77 m 1
 440 46 484 27 534 27 c 0
 669 27 736 165 736 311 c 0
 736 405 716 501 674 568 c 1
 404 77 l 1
EndSplineSet
EndChar
